M48
INCH,TZ
T1C0.012
T2C0.016
T3C0.035
T4C0.039
T5C0.040
%
G90
G05
T1
X21929Y-26496
X22165Y-20965
X23996Y-24429
X24291Y-25394
X25669Y-20098
X26811Y-22992
X27028Y-21496
X30709Y-22776
X30807Y-23839
X31368Y-20030
X32362Y-21870
X32372Y-25728
X32726Y-25246
X32815Y-20030
X32992Y-26890
X33100Y-25856
T2
X22461Y-24961
X22717Y-25787
X24055Y-25807
X24724Y-24094
X25039Y-23228
X25394Y-25787
X26220Y-24094
X26732Y-25827
X27126Y-23780
X27530Y-20463
X28563Y-20217
X28957Y-23248
X29134Y-23543
X29252Y-21102
X29345Y-23821
X29547Y-24154
X29902Y-22923
X30226Y-22520
X30787Y-24311
X31004Y-26043
X31240Y-24744
X31575Y-25374
X33465Y-22804
T4
X20610Y-22717
X20610Y-24488
T5
X28567Y-26614
X29567Y-26614
X30567Y-26614
X31567Y-26614
X34902Y-21091
X34902Y-22091
X34902Y-23091
X34902Y-24091
X34902Y-25091
X34902Y-26091
X35902Y-21091
X35902Y-22091
X35902Y-23091
X35902Y-24091
X35902Y-25091
X35902Y-26091
T3
X20925Y-21299G85X20295Y-21299
G05
X20925Y-25906G85X20295Y-25906
G05
T0
M30
