G04 #@! TF.FileFunction,Soldermask,Top*
%FSLAX46Y46*%
G04 Gerber Fmt 4.6, Leading zero omitted, Abs format (unit mm)*
G04 Created by KiCad (PCBNEW (2016-09-30 revision 278ee7d)-makepkg) date Sun Nov 13 05:54:16 2016*
%MOMM*%
%LPD*%
G01*
G04 APERTURE LIST*
%ADD10C,0.100000*%
%ADD11R,1.150000X1.200000*%
%ADD12R,1.197560X1.197560*%
%ADD13R,1.300000X0.900000*%
%ADD14R,0.650000X1.700000*%
%ADD15R,1.700000X0.650000*%
%ADD16R,2.900000X1.500000*%
%ADD17O,3.625600X2.025600*%
%ADD18C,1.400000*%
%ADD19R,2.127200X2.432000*%
%ADD20O,2.127200X2.432000*%
%ADD21O,2.127200X2.127200*%
%ADD22R,2.127200X2.127200*%
%ADD23R,1.400000X1.800000*%
%ADD24R,1.200100X1.200100*%
G04 APERTURE END LIST*
D10*
D11*
X82400000Y-52800000D03*
X82400000Y-51300000D03*
X69950000Y-61500000D03*
X69950000Y-60000000D03*
X73800000Y-52800000D03*
X73800000Y-51300000D03*
X84200000Y-52800000D03*
X84200000Y-51300000D03*
D12*
X75400000Y-52799300D03*
X75400000Y-51300700D03*
D13*
X62800000Y-65400000D03*
X62800000Y-63900000D03*
D14*
X79150000Y-55650000D03*
X78650000Y-55650000D03*
X78150000Y-55650000D03*
X77650000Y-55650000D03*
X77150000Y-55650000D03*
X76650000Y-55650000D03*
X76150000Y-55650000D03*
X75650000Y-55650000D03*
X75150000Y-55650000D03*
X74650000Y-55650000D03*
X74150000Y-55650000D03*
X73650000Y-55650000D03*
D15*
X72050000Y-57250000D03*
X72050000Y-57750000D03*
X72050000Y-58250000D03*
X72050000Y-58750000D03*
X72050000Y-59250000D03*
X72050000Y-59750000D03*
X72050000Y-60250000D03*
X72050000Y-60750000D03*
X72050000Y-61250000D03*
X72050000Y-61750000D03*
X72050000Y-62250000D03*
X72050000Y-62750000D03*
D14*
X73650000Y-64350000D03*
X74150000Y-64350000D03*
X74650000Y-64350000D03*
X75150000Y-64350000D03*
X75650000Y-64350000D03*
X76150000Y-64350000D03*
X76650000Y-64350000D03*
X77150000Y-64350000D03*
X77650000Y-64350000D03*
X78150000Y-64350000D03*
X78650000Y-64350000D03*
X79150000Y-64350000D03*
D15*
X80750000Y-62750000D03*
X80750000Y-62250000D03*
X80750000Y-61750000D03*
X80750000Y-61250000D03*
X80750000Y-60750000D03*
X80750000Y-60250000D03*
X80750000Y-59750000D03*
X80750000Y-59250000D03*
X80750000Y-58750000D03*
X80750000Y-58250000D03*
X80750000Y-57750000D03*
X80750000Y-57250000D03*
D13*
X77000000Y-51300000D03*
X77000000Y-52800000D03*
D16*
X55100000Y-56450000D03*
X55100000Y-58950000D03*
X55100000Y-60950000D03*
X55100000Y-63450000D03*
D17*
X52350000Y-54100000D03*
X52350000Y-65800000D03*
D18*
X52350000Y-57700000D03*
X52350000Y-62200000D03*
D11*
X80600000Y-52800000D03*
X80600000Y-51300000D03*
D19*
X80180000Y-67600000D03*
D20*
X77640000Y-67600000D03*
X75100000Y-67600000D03*
X72560000Y-67600000D03*
D11*
X78800000Y-52800000D03*
X78800000Y-51300000D03*
D12*
X57700000Y-66550700D03*
X57700000Y-68049300D03*
X61100000Y-66550700D03*
X61100000Y-68049300D03*
X64500000Y-66550700D03*
X64500000Y-68049300D03*
X67900000Y-66600000D03*
X67900000Y-68098600D03*
D13*
X59400000Y-68050000D03*
X59400000Y-66550000D03*
X62800000Y-68050000D03*
X62800000Y-66550000D03*
X66200000Y-68050000D03*
X66200000Y-66550000D03*
X69600000Y-68050000D03*
X69600000Y-66550000D03*
D21*
X91190000Y-66270000D03*
X88650000Y-66270000D03*
X91190000Y-63730000D03*
X88650000Y-63730000D03*
X91190000Y-61190000D03*
X88650000Y-61190000D03*
X91190000Y-58650000D03*
X88650000Y-58650000D03*
X91190000Y-56110000D03*
X88650000Y-56110000D03*
X91190000Y-53570000D03*
D22*
X88650000Y-53570000D03*
D23*
X62800000Y-62400000D03*
X62800000Y-54800000D03*
X66600000Y-62400000D03*
X66600000Y-54800000D03*
X59000000Y-62400000D03*
X59000000Y-54800000D03*
D24*
X71000000Y-51451780D03*
X71950000Y-53450760D03*
X70050000Y-53450760D03*
D11*
X86000000Y-52800000D03*
X86000000Y-51300000D03*
M02*
