G04 #@! TF.FileFunction,Copper,L1,Top,Signal*
%FSLAX46Y46*%
G04 Gerber Fmt 4.6, Leading zero omitted, Abs format (unit mm)*
G04 Created by KiCad (PCBNEW 4.0.2-stable) date 2016-10-02 16:05:12*
%MOMM*%
G01*
G04 APERTURE LIST*
%ADD10C,0.100000*%
%ADD11C,0.600000*%
%ADD12R,0.750000X0.800000*%
%ADD13R,0.797560X0.797560*%
%ADD14R,1.727200X1.727200*%
%ADD15O,1.727200X1.727200*%
%ADD16R,0.500000X0.900000*%
%ADD17R,2.032000X3.657600*%
%ADD18R,2.032000X1.016000*%
%ADD19R,0.250000X1.300000*%
%ADD20R,1.300000X0.250000*%
%ADD21R,2.500000X1.100000*%
%ADD22O,3.225600X1.625600*%
%ADD23C,1.000000*%
%ADD24R,1.727200X2.032000*%
%ADD25O,1.727200X2.032000*%
%ADD26R,0.900000X0.500000*%
%ADD27R,0.900000X1.700000*%
%ADD28C,0.254000*%
%ADD29C,0.508000*%
G04 APERTURE END LIST*
D10*
D11*
X69250000Y-51000000D03*
X86000000Y-51250000D03*
X71500000Y-55750000D03*
X55700000Y-67300000D03*
X83900000Y-67400000D03*
X84800000Y-55800000D03*
X57600000Y-52200000D03*
D12*
X82500000Y-52800000D03*
X82500000Y-51300000D03*
X69800000Y-62600000D03*
X69800000Y-61100000D03*
X71700000Y-52800000D03*
X71700000Y-51300000D03*
X84300000Y-52800000D03*
X84300000Y-51300000D03*
D13*
X59249300Y-57200000D03*
X57750700Y-57200000D03*
D14*
X88650000Y-53570000D03*
D15*
X91190000Y-53570000D03*
X88650000Y-56110000D03*
X91190000Y-56110000D03*
X88650000Y-58650000D03*
X91190000Y-58650000D03*
X88650000Y-61190000D03*
X91190000Y-61190000D03*
X88650000Y-63730000D03*
X91190000Y-63730000D03*
X88650000Y-66270000D03*
X91190000Y-66270000D03*
D16*
X57750000Y-62600000D03*
X59250000Y-62600000D03*
D17*
X69292000Y-56500000D03*
D18*
X62688000Y-56500000D03*
X62688000Y-58786000D03*
X62688000Y-54214000D03*
D19*
X79150000Y-55650000D03*
X78650000Y-55650000D03*
X78150000Y-55650000D03*
X77650000Y-55650000D03*
X77150000Y-55650000D03*
X76650000Y-55650000D03*
X76150000Y-55650000D03*
X75650000Y-55650000D03*
X75150000Y-55650000D03*
X74650000Y-55650000D03*
X74150000Y-55650000D03*
X73650000Y-55650000D03*
D20*
X72050000Y-57250000D03*
X72050000Y-57750000D03*
X72050000Y-58250000D03*
X72050000Y-58750000D03*
X72050000Y-59250000D03*
X72050000Y-59750000D03*
X72050000Y-60250000D03*
X72050000Y-60750000D03*
X72050000Y-61250000D03*
X72050000Y-61750000D03*
X72050000Y-62250000D03*
X72050000Y-62750000D03*
D19*
X73650000Y-64350000D03*
X74150000Y-64350000D03*
X74650000Y-64350000D03*
X75150000Y-64350000D03*
X75650000Y-64350000D03*
X76150000Y-64350000D03*
X76650000Y-64350000D03*
X77150000Y-64350000D03*
X77650000Y-64350000D03*
X78150000Y-64350000D03*
X78650000Y-64350000D03*
X79150000Y-64350000D03*
D20*
X80750000Y-62750000D03*
X80750000Y-62250000D03*
X80750000Y-61750000D03*
X80750000Y-61250000D03*
X80750000Y-60750000D03*
X80750000Y-60250000D03*
X80750000Y-59750000D03*
X80750000Y-59250000D03*
X80750000Y-58750000D03*
X80750000Y-58250000D03*
X80750000Y-57750000D03*
X80750000Y-57250000D03*
D16*
X57750000Y-55400000D03*
X59250000Y-55400000D03*
D21*
X55100000Y-56450000D03*
X55100000Y-58950000D03*
X55100000Y-60950000D03*
X55100000Y-63450000D03*
D22*
X52350000Y-54100000D03*
X52350000Y-65800000D03*
D23*
X52350000Y-57700000D03*
X52350000Y-62200000D03*
D12*
X80700000Y-52800000D03*
X80700000Y-51300000D03*
D24*
X80180000Y-67600000D03*
D25*
X77640000Y-67600000D03*
X75100000Y-67600000D03*
X72560000Y-67600000D03*
D12*
X78800000Y-52800000D03*
X78800000Y-51300000D03*
D13*
X57500000Y-66550700D03*
X57500000Y-68049300D03*
X60900000Y-66550700D03*
X60900000Y-68049300D03*
X64300000Y-66550700D03*
X64300000Y-68049300D03*
X67700000Y-66600000D03*
X67700000Y-68098600D03*
D26*
X59200000Y-66550000D03*
X59200000Y-68050000D03*
X62600000Y-66550000D03*
X62600000Y-68050000D03*
X66000000Y-66550000D03*
X66000000Y-68050000D03*
X69400000Y-66550000D03*
X69400000Y-68050000D03*
D27*
X64600000Y-62600000D03*
X61200000Y-62600000D03*
X73500000Y-52000000D03*
X76900000Y-52000000D03*
X85950000Y-67750000D03*
X82550000Y-67750000D03*
D11*
X72500000Y-54250000D03*
X63600000Y-62600000D03*
X80115619Y-64575829D03*
X64650000Y-56580000D03*
X78800000Y-62200000D03*
X75600000Y-57200000D03*
X60960000Y-58770000D03*
X58500000Y-64000000D03*
X79350000Y-59250000D03*
X72450000Y-64858821D03*
X57500000Y-65500000D03*
X73667467Y-58868857D03*
X60900000Y-65500000D03*
X74000000Y-59800000D03*
X64300000Y-65500000D03*
X74536857Y-60505514D03*
X67700000Y-65600000D03*
X74954924Y-61191349D03*
X74750000Y-57500000D03*
X82250000Y-63250000D03*
D28*
X71700000Y-52800000D02*
X71700000Y-53450000D01*
X71700000Y-53450000D02*
X72500000Y-54250000D01*
X75150000Y-55650000D02*
X75150000Y-54780638D01*
X74619362Y-54250000D02*
X72924264Y-54250000D01*
X75150000Y-54780638D02*
X74619362Y-54250000D01*
X72924264Y-54250000D02*
X72500000Y-54250000D01*
X80750000Y-57250000D02*
X79846000Y-57250000D01*
X79846000Y-57250000D02*
X79150000Y-56554000D01*
X79150000Y-56554000D02*
X79150000Y-55650000D01*
D29*
X80700000Y-52800000D02*
X80700000Y-57165790D01*
X88650000Y-56110000D02*
X87428686Y-56110000D01*
X87428686Y-56110000D02*
X86372896Y-57165790D01*
X86372896Y-57165790D02*
X80700000Y-57165790D01*
X80700000Y-57165790D02*
X80750000Y-57165790D01*
X82500000Y-52800000D02*
X80700000Y-52800000D01*
X84300000Y-52800000D02*
X82500000Y-52800000D01*
X80700000Y-52800000D02*
X80607210Y-52800000D01*
X64500000Y-62600000D02*
X63600000Y-62600000D01*
D28*
X79889790Y-64350000D02*
X80115619Y-64575829D01*
X79150000Y-64350000D02*
X79889790Y-64350000D01*
D29*
X69800000Y-62600000D02*
X70448803Y-62600000D01*
X70448803Y-62600000D02*
X70681004Y-62832201D01*
X70681004Y-62832201D02*
X72050000Y-62832201D01*
X64650000Y-56580000D02*
X64650000Y-57650000D01*
X64650000Y-57650000D02*
X69832201Y-62832201D01*
X59249300Y-57200000D02*
X60156080Y-57200000D01*
X60156080Y-57200000D02*
X60856080Y-56500000D01*
X60856080Y-56500000D02*
X62688000Y-56500000D01*
X62688000Y-56500000D02*
X64570000Y-56500000D01*
X64570000Y-56500000D02*
X64650000Y-56580000D01*
X62568000Y-56500000D02*
X62708000Y-56640000D01*
D28*
X71700000Y-51300000D02*
X73200000Y-51300000D01*
X73600000Y-51700000D02*
X73600000Y-52100000D01*
X73200000Y-51300000D02*
X73600000Y-51700000D01*
X78600000Y-51500000D02*
X78800000Y-51300000D01*
X69800000Y-61100000D02*
X69800000Y-61125000D01*
X69800000Y-61125000D02*
X70922991Y-62247991D01*
X70922991Y-62247991D02*
X72050000Y-62247991D01*
X78800000Y-63296000D02*
X78800000Y-62200000D01*
X78650000Y-64350000D02*
X78650000Y-63446000D01*
X78650000Y-63446000D02*
X78800000Y-63296000D01*
X80750000Y-57750000D02*
X76150000Y-57750000D01*
X76150000Y-57750000D02*
X75600000Y-57200000D01*
X75650000Y-55650000D02*
X75650000Y-57150000D01*
X75650000Y-57150000D02*
X75600000Y-57200000D01*
X53057106Y-62200000D02*
X52350000Y-62200000D01*
X57750000Y-62600000D02*
X57246000Y-62600000D01*
X57246000Y-62600000D02*
X56846000Y-62200000D01*
X56846000Y-62200000D02*
X53057106Y-62200000D01*
D29*
X55100000Y-63450000D02*
X56858000Y-63450000D01*
X60976000Y-58786000D02*
X60960000Y-58770000D01*
X62688000Y-58786000D02*
X60976000Y-58786000D01*
X57408000Y-64000000D02*
X58500000Y-64000000D01*
X56858000Y-63450000D02*
X57408000Y-64000000D01*
D28*
X80750000Y-60250000D02*
X83303408Y-60250000D01*
X89996199Y-62383801D02*
X90326401Y-62053599D01*
X90326401Y-62053599D02*
X91190000Y-61190000D01*
X83303408Y-60250000D02*
X85437209Y-62383801D01*
X85437209Y-62383801D02*
X89996199Y-62383801D01*
X87428686Y-66270000D02*
X88650000Y-66270000D01*
X87383629Y-66270000D02*
X87428686Y-66270000D01*
X80750000Y-61750000D02*
X82863629Y-61750000D01*
X82863629Y-61750000D02*
X87383629Y-66270000D01*
X81350000Y-59750000D02*
X81392790Y-59792790D01*
X80750000Y-59750000D02*
X81350000Y-59750000D01*
X80750000Y-59750000D02*
X83450000Y-59750000D01*
X83450000Y-59750000D02*
X84890000Y-61190000D01*
X84890000Y-61190000D02*
X88650000Y-61190000D01*
X86684023Y-64923801D02*
X89996199Y-64923801D01*
X80750000Y-61250000D02*
X83010222Y-61250000D01*
X90326401Y-64593599D02*
X91190000Y-63730000D01*
X89996199Y-64923801D02*
X90326401Y-64593599D01*
X83010222Y-61250000D02*
X86684023Y-64923801D01*
X90326401Y-59513599D02*
X91190000Y-58650000D01*
X89996199Y-59843801D02*
X90326401Y-59513599D01*
X80750000Y-58750000D02*
X83103408Y-58750000D01*
X83103408Y-58750000D02*
X84197209Y-59843801D01*
X84197209Y-59843801D02*
X89996199Y-59843801D01*
X87428686Y-63730000D02*
X88650000Y-63730000D01*
X86136815Y-63730000D02*
X87428686Y-63730000D01*
X80750000Y-60750000D02*
X83156815Y-60750000D01*
X83156815Y-60750000D02*
X86136815Y-63730000D01*
X80750000Y-58250000D02*
X80792790Y-58292790D01*
X88600000Y-58600000D02*
X88650000Y-58650000D01*
X83600000Y-58600000D02*
X88600000Y-58600000D01*
X83292790Y-58292790D02*
X83600000Y-58600000D01*
X80792790Y-58292790D02*
X83292790Y-58292790D01*
X89996199Y-67463801D02*
X90326401Y-67133599D01*
X90326401Y-67133599D02*
X91190000Y-66270000D01*
X87913801Y-67463801D02*
X89996199Y-67463801D01*
X82700000Y-62250000D02*
X87913801Y-67463801D01*
X80750000Y-62250000D02*
X82700000Y-62250000D01*
X80750000Y-62750000D02*
X80750000Y-64832698D01*
X79200000Y-66000000D02*
X77640000Y-67560000D01*
X79582698Y-66000000D02*
X79200000Y-66000000D01*
X80750000Y-64832698D02*
X79582698Y-66000000D01*
X77640000Y-67560000D02*
X77640000Y-67600000D01*
X77640000Y-67600000D02*
X77640000Y-66960000D01*
X72560000Y-67600000D02*
X72560000Y-67447600D01*
X72560000Y-67447600D02*
X74407600Y-65600000D01*
X74407600Y-65600000D02*
X77858960Y-65600000D01*
X77858960Y-65600000D02*
X78150000Y-65308960D01*
X78150000Y-65308960D02*
X78150000Y-65254000D01*
X78150000Y-65254000D02*
X78150000Y-64350000D01*
X72450000Y-64858821D02*
X62358821Y-64858821D01*
X62358821Y-64858821D02*
X61100000Y-63600000D01*
X61100000Y-63600000D02*
X61100000Y-62700000D01*
X61100000Y-62700000D02*
X61200000Y-62600000D01*
X61200000Y-62600000D02*
X59250000Y-62600000D01*
X79350000Y-59250000D02*
X80750000Y-59250000D01*
X77571000Y-52200000D02*
X77100000Y-52200000D01*
X77100000Y-52200000D02*
X76900000Y-52000000D01*
X78800000Y-52800000D02*
X78171000Y-52800000D01*
X78171000Y-52800000D02*
X77571000Y-52200000D01*
X76900000Y-52000000D02*
X76900000Y-53104000D01*
X76900000Y-53104000D02*
X76150000Y-53854000D01*
X76150000Y-53854000D02*
X76150000Y-54746000D01*
X76150000Y-54746000D02*
X76150000Y-55650000D01*
X57750700Y-57200000D02*
X57750700Y-55400700D01*
X57750700Y-55400700D02*
X57750000Y-55400000D01*
X77650000Y-64350000D02*
X77650000Y-62732893D01*
X77650000Y-62732893D02*
X77088507Y-62171400D01*
X68894688Y-63771400D02*
X65523288Y-60400000D01*
X72305312Y-63771400D02*
X68894688Y-63771400D01*
X77088507Y-62171400D02*
X73905312Y-62171400D01*
X65523288Y-60400000D02*
X58200000Y-60400000D01*
X55150000Y-59000000D02*
X55100000Y-58950000D01*
X73905312Y-62171400D02*
X72305312Y-63771400D01*
X58200000Y-60400000D02*
X56800000Y-59000000D01*
X56800000Y-59000000D02*
X55150000Y-59000000D01*
X55100000Y-60950000D02*
X65426695Y-60950000D01*
X68705306Y-64228611D02*
X72494694Y-64228611D01*
X67014006Y-62777494D02*
X67079501Y-62762545D01*
X65426695Y-60950000D02*
X66476695Y-62000000D01*
X67215425Y-63712446D02*
X67257310Y-63764968D01*
X66337749Y-62605224D02*
X66322800Y-62670719D01*
X67079501Y-62762545D02*
X67146680Y-62762545D01*
X66322800Y-62670719D02*
X66322800Y-62737898D01*
X67257310Y-63764968D02*
X67309832Y-63806853D01*
X67367108Y-62901050D02*
X67396255Y-62961576D01*
X66476695Y-62000000D02*
X66518580Y-62052522D01*
X68121228Y-63655170D02*
X68173751Y-63697056D01*
X66780523Y-62958325D02*
X66833046Y-62916440D01*
X67396255Y-62961576D02*
X67411204Y-63027070D01*
X66547727Y-62113048D02*
X66562676Y-62178542D01*
X67862534Y-63626022D02*
X67928029Y-63611073D01*
X66408782Y-62916440D02*
X66461304Y-62958325D01*
X66518580Y-62052522D02*
X66547727Y-62113048D01*
X67212174Y-62777494D02*
X67272700Y-62806642D01*
X66337749Y-62803392D02*
X66366897Y-62863918D01*
X66562676Y-62178542D02*
X66562676Y-62245721D01*
X66562676Y-62245721D02*
X66547727Y-62311215D01*
X66547727Y-62311215D02*
X66518580Y-62371741D01*
X66518580Y-62371741D02*
X66476695Y-62424264D01*
X66476695Y-62424264D02*
X66408782Y-62492176D01*
X67396255Y-63159743D02*
X67367108Y-63220269D01*
X66366897Y-62863918D02*
X66408782Y-62916440D01*
X68173751Y-63697056D02*
X68705306Y-64228611D01*
X66408782Y-62492176D02*
X66366897Y-62544699D01*
X76332611Y-62628611D02*
X77150000Y-63446000D01*
X66366897Y-62544699D02*
X66337749Y-62605224D01*
X67435852Y-63850949D02*
X67503031Y-63850949D01*
X66322800Y-62737898D02*
X66337749Y-62803392D01*
X67309832Y-63806853D02*
X67370358Y-63836000D01*
X67411204Y-63094249D02*
X67396255Y-63159743D01*
X66461304Y-62958325D02*
X66521830Y-62987472D01*
X67568525Y-63836000D02*
X67629051Y-63806853D01*
X67411204Y-63027070D02*
X67411204Y-63094249D01*
X66521830Y-62987472D02*
X66587324Y-63002421D01*
X67995208Y-63611073D02*
X68060702Y-63626022D01*
X67928029Y-63611073D02*
X67995208Y-63611073D01*
X66833046Y-62916440D02*
X66900958Y-62848527D01*
X66587324Y-63002421D02*
X66654503Y-63002421D01*
X66654503Y-63002421D02*
X66719997Y-62987472D01*
X67171328Y-63519247D02*
X67171328Y-63586426D01*
X66719997Y-62987472D02*
X66780523Y-62958325D01*
X67272700Y-62806642D02*
X67325223Y-62848528D01*
X66900958Y-62848527D02*
X66953481Y-62806642D01*
X66953481Y-62806642D02*
X67014006Y-62777494D01*
X67146680Y-62762545D02*
X67212174Y-62777494D01*
X67325223Y-62848528D02*
X67367108Y-62901050D01*
X67367108Y-63220269D02*
X67325223Y-63272792D01*
X67325223Y-63272792D02*
X67257310Y-63340704D01*
X67257310Y-63340704D02*
X67215425Y-63393227D01*
X67215425Y-63393227D02*
X67186277Y-63453752D01*
X67186277Y-63453752D02*
X67171328Y-63519247D01*
X67171328Y-63586426D02*
X67186277Y-63651920D01*
X67186277Y-63651920D02*
X67215425Y-63712446D01*
X67370358Y-63836000D02*
X67435852Y-63850949D01*
X67802009Y-63655170D02*
X67862534Y-63626022D01*
X67503031Y-63850949D02*
X67568525Y-63836000D01*
X67629051Y-63806853D02*
X67681574Y-63764968D01*
X67681574Y-63764968D02*
X67749486Y-63697055D01*
X67749486Y-63697055D02*
X67802009Y-63655170D01*
X68060702Y-63626022D02*
X68121228Y-63655170D01*
X72494694Y-64228611D02*
X74094694Y-62628611D01*
X74094694Y-62628611D02*
X76332611Y-62628611D01*
X77150000Y-63446000D02*
X77150000Y-64350000D01*
X57500000Y-66550700D02*
X57500000Y-65500000D01*
X72954000Y-59750000D02*
X73667467Y-59036533D01*
X72050000Y-59750000D02*
X72954000Y-59750000D01*
X73667467Y-59036533D02*
X73667467Y-58868857D01*
X59200000Y-66550000D02*
X58999300Y-66550000D01*
X58999300Y-66550000D02*
X57500000Y-68049300D01*
X60900000Y-66550700D02*
X60900000Y-65500000D01*
X73550000Y-60250000D02*
X73700001Y-60099999D01*
X72050000Y-60250000D02*
X73550000Y-60250000D01*
X73700001Y-60099999D02*
X74000000Y-59800000D01*
X62600000Y-66550000D02*
X62399300Y-66550000D01*
X62399300Y-66550000D02*
X60900000Y-68049300D01*
X64300000Y-66550700D02*
X64300000Y-65500000D01*
X72050000Y-60750000D02*
X74292371Y-60750000D01*
X74292371Y-60750000D02*
X74536857Y-60505514D01*
X66000000Y-66550000D02*
X65799300Y-66550000D01*
X65799300Y-66550000D02*
X64300000Y-68049300D01*
X67700000Y-66600000D02*
X67700000Y-65600000D01*
X72050000Y-61250000D02*
X74896273Y-61250000D01*
X74896273Y-61250000D02*
X74954924Y-61191349D01*
X69400000Y-66550000D02*
X69248600Y-66550000D01*
X69248600Y-66550000D02*
X67700000Y-68098600D01*
X67748600Y-68050000D02*
X67700000Y-68098600D01*
X74750000Y-57500000D02*
X74650000Y-57400000D01*
X74650000Y-57400000D02*
X74650000Y-55650000D01*
X82550000Y-67750000D02*
X82550000Y-63550000D01*
X82550000Y-63550000D02*
X82250000Y-63250000D01*
G36*
X70690000Y-50773691D02*
X70690000Y-51014250D01*
X70848750Y-51173000D01*
X71573000Y-51173000D01*
X71573000Y-51153000D01*
X71827000Y-51153000D01*
X71827000Y-51173000D01*
X71847000Y-51173000D01*
X71847000Y-51427000D01*
X71827000Y-51427000D01*
X71827000Y-51447000D01*
X71573000Y-51447000D01*
X71573000Y-51427000D01*
X70848750Y-51427000D01*
X70690000Y-51585750D01*
X70690000Y-51826309D01*
X70786673Y-52059698D01*
X70788043Y-52061068D01*
X70728569Y-52148110D01*
X70677560Y-52400000D01*
X70677560Y-53200000D01*
X70721838Y-53435317D01*
X70860910Y-53651441D01*
X70998637Y-53745546D01*
X71120717Y-53928250D01*
X71161185Y-53988815D01*
X71564875Y-54392505D01*
X71564838Y-54435167D01*
X71706883Y-54778943D01*
X71969673Y-55042192D01*
X72313201Y-55184838D01*
X72685167Y-55185162D01*
X72877560Y-55105667D01*
X72877560Y-56300000D01*
X72919328Y-56521975D01*
X72700000Y-56477560D01*
X71400000Y-56477560D01*
X71164683Y-56521838D01*
X70948559Y-56660910D01*
X70895628Y-56738378D01*
X70784250Y-56627000D01*
X69419000Y-56627000D01*
X69419000Y-58805050D01*
X69577750Y-58963800D01*
X70434310Y-58963800D01*
X70667699Y-58867127D01*
X70752560Y-58782266D01*
X70752560Y-58875000D01*
X70776944Y-59004589D01*
X70752560Y-59125000D01*
X70752560Y-59375000D01*
X70776944Y-59504589D01*
X70752560Y-59625000D01*
X70752560Y-59875000D01*
X70776944Y-60004589D01*
X70752560Y-60125000D01*
X70752560Y-60375000D01*
X70773254Y-60484978D01*
X70713327Y-60340302D01*
X70534699Y-60161673D01*
X70301310Y-60065000D01*
X70085750Y-60065000D01*
X69927000Y-60223750D01*
X69927000Y-60973000D01*
X69947000Y-60973000D01*
X69947000Y-61227000D01*
X69927000Y-61227000D01*
X69927000Y-61247000D01*
X69673000Y-61247000D01*
X69673000Y-61227000D01*
X69653000Y-61227000D01*
X69653000Y-60973000D01*
X69673000Y-60973000D01*
X69673000Y-60223750D01*
X69514250Y-60065000D01*
X69298690Y-60065000D01*
X69065301Y-60161673D01*
X68886673Y-60340302D01*
X68801987Y-60544751D01*
X65539000Y-57281764D01*
X65539000Y-56877189D01*
X65576968Y-56785750D01*
X67641000Y-56785750D01*
X67641000Y-58455109D01*
X67737673Y-58688498D01*
X67916301Y-58867127D01*
X68149690Y-58963800D01*
X69006250Y-58963800D01*
X69165000Y-58805050D01*
X69165000Y-56627000D01*
X67799750Y-56627000D01*
X67641000Y-56785750D01*
X65576968Y-56785750D01*
X65584838Y-56766799D01*
X65585162Y-56394833D01*
X65443117Y-56051057D01*
X65180327Y-55787808D01*
X64836799Y-55645162D01*
X64741326Y-55645079D01*
X64570000Y-55611000D01*
X64213418Y-55611000D01*
X64168090Y-55540559D01*
X63955890Y-55395569D01*
X63765431Y-55357000D01*
X63830310Y-55357000D01*
X64063699Y-55260327D01*
X64242327Y-55081698D01*
X64339000Y-54848309D01*
X64339000Y-54544891D01*
X67641000Y-54544891D01*
X67641000Y-56214250D01*
X67799750Y-56373000D01*
X69165000Y-56373000D01*
X69165000Y-54194950D01*
X69419000Y-54194950D01*
X69419000Y-56373000D01*
X70784250Y-56373000D01*
X70943000Y-56214250D01*
X70943000Y-54544891D01*
X70846327Y-54311502D01*
X70667699Y-54132873D01*
X70434310Y-54036200D01*
X69577750Y-54036200D01*
X69419000Y-54194950D01*
X69165000Y-54194950D01*
X69006250Y-54036200D01*
X68149690Y-54036200D01*
X67916301Y-54132873D01*
X67737673Y-54311502D01*
X67641000Y-54544891D01*
X64339000Y-54544891D01*
X64339000Y-54499750D01*
X64180250Y-54341000D01*
X62815000Y-54341000D01*
X62815000Y-54361000D01*
X62561000Y-54361000D01*
X62561000Y-54341000D01*
X61195750Y-54341000D01*
X61037000Y-54499750D01*
X61037000Y-54848309D01*
X61133673Y-55081698D01*
X61312301Y-55260327D01*
X61545690Y-55357000D01*
X61605887Y-55357000D01*
X61436683Y-55388838D01*
X61220559Y-55527910D01*
X61163786Y-55611000D01*
X60856080Y-55611000D01*
X60515874Y-55678671D01*
X60227462Y-55871382D01*
X60135000Y-55963844D01*
X60135000Y-55685750D01*
X59976250Y-55527000D01*
X59375000Y-55527000D01*
X59375000Y-55547000D01*
X59125000Y-55547000D01*
X59125000Y-55527000D01*
X59103000Y-55527000D01*
X59103000Y-55273000D01*
X59125000Y-55273000D01*
X59125000Y-54473750D01*
X59375000Y-54473750D01*
X59375000Y-55273000D01*
X59976250Y-55273000D01*
X60135000Y-55114250D01*
X60135000Y-54823690D01*
X60038327Y-54590301D01*
X59859698Y-54411673D01*
X59626309Y-54315000D01*
X59533750Y-54315000D01*
X59375000Y-54473750D01*
X59125000Y-54473750D01*
X58966250Y-54315000D01*
X58873691Y-54315000D01*
X58640302Y-54411673D01*
X58499064Y-54552910D01*
X58464090Y-54498559D01*
X58251890Y-54353569D01*
X58000000Y-54302560D01*
X57500000Y-54302560D01*
X57264683Y-54346838D01*
X57048559Y-54485910D01*
X56903569Y-54698110D01*
X56852560Y-54950000D01*
X56852560Y-55504535D01*
X56709699Y-55361673D01*
X56476310Y-55265000D01*
X55385750Y-55265000D01*
X55227000Y-55423750D01*
X55227000Y-56323000D01*
X55247000Y-56323000D01*
X55247000Y-56577000D01*
X55227000Y-56577000D01*
X55227000Y-57476250D01*
X55385750Y-57635000D01*
X56476310Y-57635000D01*
X56704480Y-57540489D01*
X56704480Y-57598780D01*
X56748758Y-57834097D01*
X56887830Y-58050221D01*
X57100030Y-58195211D01*
X57351920Y-58246220D01*
X58149480Y-58246220D01*
X58384797Y-58201942D01*
X58499993Y-58127815D01*
X58598630Y-58195211D01*
X58850520Y-58246220D01*
X59648080Y-58246220D01*
X59883397Y-58201942D01*
X60058914Y-58089000D01*
X60156080Y-58089000D01*
X60359222Y-58048593D01*
X60167808Y-58239673D01*
X60025162Y-58583201D01*
X60024838Y-58955167D01*
X60166883Y-59298943D01*
X60429673Y-59562192D01*
X60612238Y-59638000D01*
X58515630Y-59638000D01*
X57338815Y-58461185D01*
X57291837Y-58429795D01*
X57091605Y-58296004D01*
X56973449Y-58272501D01*
X56953162Y-58164683D01*
X56814090Y-57948559D01*
X56601890Y-57803569D01*
X56350000Y-57752560D01*
X53850000Y-57752560D01*
X53614683Y-57796838D01*
X53486718Y-57879181D01*
X53498112Y-57845028D01*
X53475333Y-57523359D01*
X53490301Y-57538327D01*
X53723690Y-57635000D01*
X54814250Y-57635000D01*
X54973000Y-57476250D01*
X54973000Y-56577000D01*
X53373750Y-56577000D01*
X53215000Y-56735750D01*
X53215000Y-57102434D01*
X53140104Y-57089501D01*
X52529605Y-57700000D01*
X53140104Y-58310499D01*
X53223604Y-58296080D01*
X53202560Y-58400000D01*
X53202560Y-59500000D01*
X53246838Y-59735317D01*
X53385910Y-59951441D01*
X53387299Y-59952390D01*
X53253569Y-60148110D01*
X53202560Y-60400000D01*
X53202560Y-61500000D01*
X53222064Y-61603654D01*
X53140104Y-61589501D01*
X52529605Y-62200000D01*
X53140104Y-62810499D01*
X53223604Y-62796080D01*
X53202560Y-62900000D01*
X53202560Y-64000000D01*
X53246838Y-64235317D01*
X53332461Y-64368379D01*
X53277000Y-64352200D01*
X52477000Y-64352200D01*
X52477000Y-65673000D01*
X54432779Y-65673000D01*
X54554596Y-65448951D01*
X54536194Y-65363283D01*
X54263552Y-64866053D01*
X53991293Y-64647440D01*
X56350000Y-64647440D01*
X56585317Y-64603162D01*
X56687910Y-64537146D01*
X56779382Y-64628618D01*
X56941168Y-64736720D01*
X56707808Y-64969673D01*
X56565162Y-65313201D01*
X56564838Y-65685167D01*
X56597533Y-65764295D01*
X56504789Y-65900030D01*
X56453780Y-66151920D01*
X56453780Y-66949480D01*
X56498058Y-67184797D01*
X56572185Y-67299993D01*
X56504789Y-67398630D01*
X56453780Y-67650520D01*
X56453780Y-68448080D01*
X56498058Y-68683397D01*
X56637130Y-68899521D01*
X56849330Y-69044511D01*
X57101220Y-69095520D01*
X57898780Y-69095520D01*
X58134097Y-69051242D01*
X58350221Y-68912170D01*
X58398387Y-68841676D01*
X58623690Y-68935000D01*
X58914250Y-68935000D01*
X59073000Y-68776250D01*
X59073000Y-68175000D01*
X59053000Y-68175000D01*
X59053000Y-67925000D01*
X59073000Y-67925000D01*
X59073000Y-67903000D01*
X59327000Y-67903000D01*
X59327000Y-67925000D01*
X59347000Y-67925000D01*
X59347000Y-68175000D01*
X59327000Y-68175000D01*
X59327000Y-68776250D01*
X59485750Y-68935000D01*
X59776310Y-68935000D01*
X60000267Y-68842234D01*
X60037130Y-68899521D01*
X60249330Y-69044511D01*
X60501220Y-69095520D01*
X61298780Y-69095520D01*
X61534097Y-69051242D01*
X61750221Y-68912170D01*
X61798387Y-68841676D01*
X62023690Y-68935000D01*
X62314250Y-68935000D01*
X62473000Y-68776250D01*
X62473000Y-68175000D01*
X62453000Y-68175000D01*
X62453000Y-67925000D01*
X62473000Y-67925000D01*
X62473000Y-67903000D01*
X62727000Y-67903000D01*
X62727000Y-67925000D01*
X62747000Y-67925000D01*
X62747000Y-68175000D01*
X62727000Y-68175000D01*
X62727000Y-68776250D01*
X62885750Y-68935000D01*
X63176310Y-68935000D01*
X63400267Y-68842234D01*
X63437130Y-68899521D01*
X63649330Y-69044511D01*
X63901220Y-69095520D01*
X64698780Y-69095520D01*
X64934097Y-69051242D01*
X65150221Y-68912170D01*
X65198387Y-68841676D01*
X65423690Y-68935000D01*
X65714250Y-68935000D01*
X65873000Y-68776250D01*
X65873000Y-68175000D01*
X65853000Y-68175000D01*
X65853000Y-67925000D01*
X65873000Y-67925000D01*
X65873000Y-67903000D01*
X66127000Y-67903000D01*
X66127000Y-67925000D01*
X66147000Y-67925000D01*
X66147000Y-68175000D01*
X66127000Y-68175000D01*
X66127000Y-68776250D01*
X66285750Y-68935000D01*
X66576310Y-68935000D01*
X66775219Y-68852609D01*
X66837130Y-68948821D01*
X67049330Y-69093811D01*
X67301220Y-69144820D01*
X68098780Y-69144820D01*
X68334097Y-69100542D01*
X68550221Y-68961470D01*
X68624642Y-68852551D01*
X68823690Y-68935000D01*
X69114250Y-68935000D01*
X69273000Y-68776250D01*
X69273000Y-68175000D01*
X69527000Y-68175000D01*
X69527000Y-68776250D01*
X69685750Y-68935000D01*
X69976310Y-68935000D01*
X70209699Y-68838327D01*
X70388327Y-68659698D01*
X70485000Y-68426309D01*
X70485000Y-68333750D01*
X70326250Y-68175000D01*
X69527000Y-68175000D01*
X69273000Y-68175000D01*
X69253000Y-68175000D01*
X69253000Y-67925000D01*
X69273000Y-67925000D01*
X69273000Y-67903000D01*
X69527000Y-67903000D01*
X69527000Y-67925000D01*
X70326250Y-67925000D01*
X70485000Y-67766250D01*
X70485000Y-67673691D01*
X70388327Y-67440302D01*
X70247090Y-67299064D01*
X70301441Y-67264090D01*
X70446431Y-67051890D01*
X70497440Y-66800000D01*
X70497440Y-66300000D01*
X70453162Y-66064683D01*
X70314090Y-65848559D01*
X70101890Y-65703569D01*
X69850000Y-65652560D01*
X68950000Y-65652560D01*
X68714683Y-65696838D01*
X68634872Y-65748195D01*
X68634983Y-65620821D01*
X71889534Y-65620821D01*
X71919673Y-65651013D01*
X72263201Y-65793659D01*
X72635167Y-65793983D01*
X72978943Y-65651938D01*
X73131484Y-65499662D01*
X73273110Y-65596431D01*
X73323363Y-65606607D01*
X72938105Y-65991865D01*
X72560000Y-65916655D01*
X71986511Y-66030729D01*
X71500330Y-66355585D01*
X71175474Y-66841766D01*
X71061400Y-67415255D01*
X71061400Y-67784745D01*
X71175474Y-68358234D01*
X71500330Y-68844415D01*
X71986511Y-69169271D01*
X72560000Y-69283345D01*
X73133489Y-69169271D01*
X73619670Y-68844415D01*
X73826461Y-68534931D01*
X74197964Y-68950732D01*
X74725209Y-69204709D01*
X74740974Y-69207358D01*
X74973000Y-69086217D01*
X74973000Y-67727000D01*
X74953000Y-67727000D01*
X74953000Y-67473000D01*
X74973000Y-67473000D01*
X74973000Y-67453000D01*
X75227000Y-67453000D01*
X75227000Y-67473000D01*
X75247000Y-67473000D01*
X75247000Y-67727000D01*
X75227000Y-67727000D01*
X75227000Y-69086217D01*
X75459026Y-69207358D01*
X75474791Y-69204709D01*
X76002036Y-68950732D01*
X76373539Y-68534931D01*
X76580330Y-68844415D01*
X77066511Y-69169271D01*
X77640000Y-69283345D01*
X78213489Y-69169271D01*
X78699670Y-68844415D01*
X78709243Y-68830087D01*
X78713238Y-68851317D01*
X78852310Y-69067441D01*
X79064510Y-69212431D01*
X79316400Y-69263440D01*
X81043600Y-69263440D01*
X81278917Y-69219162D01*
X81495041Y-69080090D01*
X81577082Y-68960019D01*
X81635910Y-69051441D01*
X81848110Y-69196431D01*
X82100000Y-69247440D01*
X83000000Y-69247440D01*
X83235317Y-69203162D01*
X83451441Y-69064090D01*
X83596431Y-68851890D01*
X83647440Y-68600000D01*
X83647440Y-68035750D01*
X84865000Y-68035750D01*
X84865000Y-68726310D01*
X84961673Y-68959699D01*
X85140302Y-69138327D01*
X85373691Y-69235000D01*
X85664250Y-69235000D01*
X85823000Y-69076250D01*
X85823000Y-67877000D01*
X86077000Y-67877000D01*
X86077000Y-69076250D01*
X86235750Y-69235000D01*
X86526309Y-69235000D01*
X86759698Y-69138327D01*
X86938327Y-68959699D01*
X87035000Y-68726310D01*
X87035000Y-68035750D01*
X86876250Y-67877000D01*
X86077000Y-67877000D01*
X85823000Y-67877000D01*
X85023750Y-67877000D01*
X84865000Y-68035750D01*
X83647440Y-68035750D01*
X83647440Y-66900000D01*
X83603162Y-66664683D01*
X83464090Y-66448559D01*
X83312000Y-66344640D01*
X83312000Y-63939630D01*
X85637370Y-66265000D01*
X85373691Y-66265000D01*
X85140302Y-66361673D01*
X84961673Y-66540301D01*
X84865000Y-66773690D01*
X84865000Y-67464250D01*
X85023750Y-67623000D01*
X85823000Y-67623000D01*
X85823000Y-67603000D01*
X86077000Y-67603000D01*
X86077000Y-67623000D01*
X86876250Y-67623000D01*
X86935810Y-67563440D01*
X87374986Y-68002616D01*
X87622196Y-68167797D01*
X87913801Y-68225801D01*
X89996199Y-68225801D01*
X90287804Y-68167797D01*
X90535014Y-68002616D01*
X90834002Y-67703628D01*
X91160641Y-67768600D01*
X91219359Y-67768600D01*
X91792848Y-67654526D01*
X92279029Y-67329670D01*
X92603885Y-66843489D01*
X92717959Y-66270000D01*
X92603885Y-65696511D01*
X92279029Y-65210330D01*
X91964248Y-65000000D01*
X92279029Y-64789670D01*
X92603885Y-64303489D01*
X92717959Y-63730000D01*
X92603885Y-63156511D01*
X92279029Y-62670330D01*
X91964248Y-62460000D01*
X92279029Y-62249670D01*
X92603885Y-61763489D01*
X92717959Y-61190000D01*
X92603885Y-60616511D01*
X92279029Y-60130330D01*
X91964248Y-59920000D01*
X92279029Y-59709670D01*
X92603885Y-59223489D01*
X92717959Y-58650000D01*
X92603885Y-58076511D01*
X92279029Y-57590330D01*
X91955772Y-57374336D01*
X92078490Y-57316821D01*
X92472688Y-56884947D01*
X92644958Y-56469026D01*
X92523817Y-56237000D01*
X91317000Y-56237000D01*
X91317000Y-56257000D01*
X91063000Y-56257000D01*
X91063000Y-56237000D01*
X91043000Y-56237000D01*
X91043000Y-55983000D01*
X91063000Y-55983000D01*
X91063000Y-53697000D01*
X91317000Y-53697000D01*
X91317000Y-55983000D01*
X92523817Y-55983000D01*
X92644958Y-55750974D01*
X92472688Y-55335053D01*
X92078490Y-54903179D01*
X91943687Y-54840000D01*
X92078490Y-54776821D01*
X92472688Y-54344947D01*
X92644958Y-53929026D01*
X92523817Y-53697000D01*
X91317000Y-53697000D01*
X91063000Y-53697000D01*
X91043000Y-53697000D01*
X91043000Y-53443000D01*
X91063000Y-53443000D01*
X91063000Y-52235531D01*
X91317000Y-52235531D01*
X91317000Y-53443000D01*
X92523817Y-53443000D01*
X92644958Y-53210974D01*
X92472688Y-52795053D01*
X92078490Y-52363179D01*
X91549027Y-52115032D01*
X91317000Y-52235531D01*
X91063000Y-52235531D01*
X90830973Y-52115032D01*
X90301510Y-52363179D01*
X90131505Y-52549433D01*
X90116762Y-52471083D01*
X89977690Y-52254959D01*
X89765490Y-52109969D01*
X89513600Y-52058960D01*
X87786400Y-52058960D01*
X87551083Y-52103238D01*
X87334959Y-52242310D01*
X87189969Y-52454510D01*
X87138960Y-52706400D01*
X87138960Y-54433600D01*
X87183238Y-54668917D01*
X87322310Y-54885041D01*
X87534510Y-55030031D01*
X87578131Y-55038864D01*
X87560971Y-55050330D01*
X87446933Y-55221000D01*
X87428686Y-55221000D01*
X87088481Y-55288670D01*
X86800068Y-55481382D01*
X86004660Y-56276790D01*
X81589000Y-56276790D01*
X81589000Y-53689000D01*
X81715879Y-53689000D01*
X81873110Y-53796431D01*
X82125000Y-53847440D01*
X82875000Y-53847440D01*
X83110317Y-53803162D01*
X83287730Y-53689000D01*
X83515879Y-53689000D01*
X83673110Y-53796431D01*
X83925000Y-53847440D01*
X84675000Y-53847440D01*
X84910317Y-53803162D01*
X85126441Y-53664090D01*
X85271431Y-53451890D01*
X85322440Y-53200000D01*
X85322440Y-52400000D01*
X85278162Y-52164683D01*
X85211671Y-52061354D01*
X85213327Y-52059698D01*
X85310000Y-51826309D01*
X85310000Y-51585750D01*
X85151250Y-51427000D01*
X84427000Y-51427000D01*
X84427000Y-51447000D01*
X84173000Y-51447000D01*
X84173000Y-51427000D01*
X83448750Y-51427000D01*
X83400000Y-51475750D01*
X83351250Y-51427000D01*
X82627000Y-51427000D01*
X82627000Y-51447000D01*
X82373000Y-51447000D01*
X82373000Y-51427000D01*
X81648750Y-51427000D01*
X81600000Y-51475750D01*
X81551250Y-51427000D01*
X80827000Y-51427000D01*
X80827000Y-51447000D01*
X80573000Y-51447000D01*
X80573000Y-51427000D01*
X79848750Y-51427000D01*
X79750000Y-51525750D01*
X79651250Y-51427000D01*
X78927000Y-51427000D01*
X78927000Y-51447000D01*
X78673000Y-51447000D01*
X78673000Y-51427000D01*
X78653000Y-51427000D01*
X78653000Y-51173000D01*
X78673000Y-51173000D01*
X78673000Y-51153000D01*
X78927000Y-51153000D01*
X78927000Y-51173000D01*
X79651250Y-51173000D01*
X79750000Y-51074250D01*
X79848750Y-51173000D01*
X80573000Y-51173000D01*
X80573000Y-51153000D01*
X80827000Y-51153000D01*
X80827000Y-51173000D01*
X81551250Y-51173000D01*
X81600000Y-51124250D01*
X81648750Y-51173000D01*
X82373000Y-51173000D01*
X82373000Y-51153000D01*
X82627000Y-51153000D01*
X82627000Y-51173000D01*
X83351250Y-51173000D01*
X83400000Y-51124250D01*
X83448750Y-51173000D01*
X84173000Y-51173000D01*
X84173000Y-51153000D01*
X84427000Y-51153000D01*
X84427000Y-51173000D01*
X85151250Y-51173000D01*
X85310000Y-51014250D01*
X85310000Y-50773691D01*
X85283618Y-50710000D01*
X90930069Y-50710000D01*
X92253707Y-50973288D01*
X93316546Y-51683454D01*
X94026712Y-52746295D01*
X94290000Y-54069931D01*
X94290000Y-65930069D01*
X94026712Y-67253705D01*
X93316546Y-68316546D01*
X92253707Y-69026712D01*
X90930069Y-69290000D01*
X53769931Y-69290000D01*
X52446295Y-69026712D01*
X51383454Y-68316546D01*
X50673288Y-67253707D01*
X50595268Y-66861473D01*
X50878618Y-67088992D01*
X51423000Y-67247800D01*
X52223000Y-67247800D01*
X52223000Y-65927000D01*
X52477000Y-65927000D01*
X52477000Y-67247800D01*
X53277000Y-67247800D01*
X53821382Y-67088992D01*
X54263552Y-66733947D01*
X54536194Y-66236717D01*
X54554596Y-66151049D01*
X54432779Y-65927000D01*
X52477000Y-65927000D01*
X52223000Y-65927000D01*
X52203000Y-65927000D01*
X52203000Y-65673000D01*
X52223000Y-65673000D01*
X52223000Y-64352200D01*
X51423000Y-64352200D01*
X50878618Y-64511008D01*
X50436448Y-64866053D01*
X50410000Y-64914287D01*
X50410000Y-62990104D01*
X51739501Y-62990104D01*
X51776648Y-63205217D01*
X52204972Y-63348112D01*
X52655375Y-63316217D01*
X52923352Y-63205217D01*
X52960499Y-62990104D01*
X52350000Y-62379605D01*
X51739501Y-62990104D01*
X50410000Y-62990104D01*
X50410000Y-62054972D01*
X51201888Y-62054972D01*
X51233783Y-62505375D01*
X51344783Y-62773352D01*
X51559896Y-62810499D01*
X52170395Y-62200000D01*
X51559896Y-61589501D01*
X51344783Y-61626648D01*
X51201888Y-62054972D01*
X50410000Y-62054972D01*
X50410000Y-61409896D01*
X51739501Y-61409896D01*
X52350000Y-62020395D01*
X52960499Y-61409896D01*
X52923352Y-61194783D01*
X52495028Y-61051888D01*
X52044625Y-61083783D01*
X51776648Y-61194783D01*
X51739501Y-61409896D01*
X50410000Y-61409896D01*
X50410000Y-58490104D01*
X51739501Y-58490104D01*
X51776648Y-58705217D01*
X52204972Y-58848112D01*
X52655375Y-58816217D01*
X52923352Y-58705217D01*
X52960499Y-58490104D01*
X52350000Y-57879605D01*
X51739501Y-58490104D01*
X50410000Y-58490104D01*
X50410000Y-57554972D01*
X51201888Y-57554972D01*
X51233783Y-58005375D01*
X51344783Y-58273352D01*
X51559896Y-58310499D01*
X52170395Y-57700000D01*
X51559896Y-57089501D01*
X51344783Y-57126648D01*
X51201888Y-57554972D01*
X50410000Y-57554972D01*
X50410000Y-56909896D01*
X51739501Y-56909896D01*
X52350000Y-57520395D01*
X52960499Y-56909896D01*
X52923352Y-56694783D01*
X52495028Y-56551888D01*
X52044625Y-56583783D01*
X51776648Y-56694783D01*
X51739501Y-56909896D01*
X50410000Y-56909896D01*
X50410000Y-54985713D01*
X50436448Y-55033947D01*
X50878618Y-55388992D01*
X51423000Y-55547800D01*
X52223000Y-55547800D01*
X52223000Y-54227000D01*
X52477000Y-54227000D01*
X52477000Y-55547800D01*
X53277000Y-55547800D01*
X53315368Y-55536607D01*
X53311673Y-55540302D01*
X53215000Y-55773691D01*
X53215000Y-56164250D01*
X53373750Y-56323000D01*
X54973000Y-56323000D01*
X54973000Y-55423750D01*
X54814250Y-55265000D01*
X53975801Y-55265000D01*
X54263552Y-55033947D01*
X54536194Y-54536717D01*
X54554596Y-54451049D01*
X54432779Y-54227000D01*
X52477000Y-54227000D01*
X52223000Y-54227000D01*
X52203000Y-54227000D01*
X52203000Y-53973000D01*
X52223000Y-53973000D01*
X52223000Y-52652200D01*
X52477000Y-52652200D01*
X52477000Y-53973000D01*
X54432779Y-53973000D01*
X54554596Y-53748951D01*
X54536194Y-53663283D01*
X54490359Y-53579691D01*
X61037000Y-53579691D01*
X61037000Y-53928250D01*
X61195750Y-54087000D01*
X62561000Y-54087000D01*
X62561000Y-53229750D01*
X62815000Y-53229750D01*
X62815000Y-54087000D01*
X64180250Y-54087000D01*
X64339000Y-53928250D01*
X64339000Y-53579691D01*
X64242327Y-53346302D01*
X64063699Y-53167673D01*
X63830310Y-53071000D01*
X62973750Y-53071000D01*
X62815000Y-53229750D01*
X62561000Y-53229750D01*
X62402250Y-53071000D01*
X61545690Y-53071000D01*
X61312301Y-53167673D01*
X61133673Y-53346302D01*
X61037000Y-53579691D01*
X54490359Y-53579691D01*
X54263552Y-53166053D01*
X53821382Y-52811008D01*
X53277000Y-52652200D01*
X52477000Y-52652200D01*
X52223000Y-52652200D01*
X51423000Y-52652200D01*
X50878618Y-52811008D01*
X50618940Y-53019519D01*
X50673288Y-52746293D01*
X51383454Y-51683454D01*
X52446295Y-50973288D01*
X53769931Y-50710000D01*
X70716382Y-50710000D01*
X70690000Y-50773691D01*
X70690000Y-50773691D01*
G37*
X70690000Y-50773691D02*
X70690000Y-51014250D01*
X70848750Y-51173000D01*
X71573000Y-51173000D01*
X71573000Y-51153000D01*
X71827000Y-51153000D01*
X71827000Y-51173000D01*
X71847000Y-51173000D01*
X71847000Y-51427000D01*
X71827000Y-51427000D01*
X71827000Y-51447000D01*
X71573000Y-51447000D01*
X71573000Y-51427000D01*
X70848750Y-51427000D01*
X70690000Y-51585750D01*
X70690000Y-51826309D01*
X70786673Y-52059698D01*
X70788043Y-52061068D01*
X70728569Y-52148110D01*
X70677560Y-52400000D01*
X70677560Y-53200000D01*
X70721838Y-53435317D01*
X70860910Y-53651441D01*
X70998637Y-53745546D01*
X71120717Y-53928250D01*
X71161185Y-53988815D01*
X71564875Y-54392505D01*
X71564838Y-54435167D01*
X71706883Y-54778943D01*
X71969673Y-55042192D01*
X72313201Y-55184838D01*
X72685167Y-55185162D01*
X72877560Y-55105667D01*
X72877560Y-56300000D01*
X72919328Y-56521975D01*
X72700000Y-56477560D01*
X71400000Y-56477560D01*
X71164683Y-56521838D01*
X70948559Y-56660910D01*
X70895628Y-56738378D01*
X70784250Y-56627000D01*
X69419000Y-56627000D01*
X69419000Y-58805050D01*
X69577750Y-58963800D01*
X70434310Y-58963800D01*
X70667699Y-58867127D01*
X70752560Y-58782266D01*
X70752560Y-58875000D01*
X70776944Y-59004589D01*
X70752560Y-59125000D01*
X70752560Y-59375000D01*
X70776944Y-59504589D01*
X70752560Y-59625000D01*
X70752560Y-59875000D01*
X70776944Y-60004589D01*
X70752560Y-60125000D01*
X70752560Y-60375000D01*
X70773254Y-60484978D01*
X70713327Y-60340302D01*
X70534699Y-60161673D01*
X70301310Y-60065000D01*
X70085750Y-60065000D01*
X69927000Y-60223750D01*
X69927000Y-60973000D01*
X69947000Y-60973000D01*
X69947000Y-61227000D01*
X69927000Y-61227000D01*
X69927000Y-61247000D01*
X69673000Y-61247000D01*
X69673000Y-61227000D01*
X69653000Y-61227000D01*
X69653000Y-60973000D01*
X69673000Y-60973000D01*
X69673000Y-60223750D01*
X69514250Y-60065000D01*
X69298690Y-60065000D01*
X69065301Y-60161673D01*
X68886673Y-60340302D01*
X68801987Y-60544751D01*
X65539000Y-57281764D01*
X65539000Y-56877189D01*
X65576968Y-56785750D01*
X67641000Y-56785750D01*
X67641000Y-58455109D01*
X67737673Y-58688498D01*
X67916301Y-58867127D01*
X68149690Y-58963800D01*
X69006250Y-58963800D01*
X69165000Y-58805050D01*
X69165000Y-56627000D01*
X67799750Y-56627000D01*
X67641000Y-56785750D01*
X65576968Y-56785750D01*
X65584838Y-56766799D01*
X65585162Y-56394833D01*
X65443117Y-56051057D01*
X65180327Y-55787808D01*
X64836799Y-55645162D01*
X64741326Y-55645079D01*
X64570000Y-55611000D01*
X64213418Y-55611000D01*
X64168090Y-55540559D01*
X63955890Y-55395569D01*
X63765431Y-55357000D01*
X63830310Y-55357000D01*
X64063699Y-55260327D01*
X64242327Y-55081698D01*
X64339000Y-54848309D01*
X64339000Y-54544891D01*
X67641000Y-54544891D01*
X67641000Y-56214250D01*
X67799750Y-56373000D01*
X69165000Y-56373000D01*
X69165000Y-54194950D01*
X69419000Y-54194950D01*
X69419000Y-56373000D01*
X70784250Y-56373000D01*
X70943000Y-56214250D01*
X70943000Y-54544891D01*
X70846327Y-54311502D01*
X70667699Y-54132873D01*
X70434310Y-54036200D01*
X69577750Y-54036200D01*
X69419000Y-54194950D01*
X69165000Y-54194950D01*
X69006250Y-54036200D01*
X68149690Y-54036200D01*
X67916301Y-54132873D01*
X67737673Y-54311502D01*
X67641000Y-54544891D01*
X64339000Y-54544891D01*
X64339000Y-54499750D01*
X64180250Y-54341000D01*
X62815000Y-54341000D01*
X62815000Y-54361000D01*
X62561000Y-54361000D01*
X62561000Y-54341000D01*
X61195750Y-54341000D01*
X61037000Y-54499750D01*
X61037000Y-54848309D01*
X61133673Y-55081698D01*
X61312301Y-55260327D01*
X61545690Y-55357000D01*
X61605887Y-55357000D01*
X61436683Y-55388838D01*
X61220559Y-55527910D01*
X61163786Y-55611000D01*
X60856080Y-55611000D01*
X60515874Y-55678671D01*
X60227462Y-55871382D01*
X60135000Y-55963844D01*
X60135000Y-55685750D01*
X59976250Y-55527000D01*
X59375000Y-55527000D01*
X59375000Y-55547000D01*
X59125000Y-55547000D01*
X59125000Y-55527000D01*
X59103000Y-55527000D01*
X59103000Y-55273000D01*
X59125000Y-55273000D01*
X59125000Y-54473750D01*
X59375000Y-54473750D01*
X59375000Y-55273000D01*
X59976250Y-55273000D01*
X60135000Y-55114250D01*
X60135000Y-54823690D01*
X60038327Y-54590301D01*
X59859698Y-54411673D01*
X59626309Y-54315000D01*
X59533750Y-54315000D01*
X59375000Y-54473750D01*
X59125000Y-54473750D01*
X58966250Y-54315000D01*
X58873691Y-54315000D01*
X58640302Y-54411673D01*
X58499064Y-54552910D01*
X58464090Y-54498559D01*
X58251890Y-54353569D01*
X58000000Y-54302560D01*
X57500000Y-54302560D01*
X57264683Y-54346838D01*
X57048559Y-54485910D01*
X56903569Y-54698110D01*
X56852560Y-54950000D01*
X56852560Y-55504535D01*
X56709699Y-55361673D01*
X56476310Y-55265000D01*
X55385750Y-55265000D01*
X55227000Y-55423750D01*
X55227000Y-56323000D01*
X55247000Y-56323000D01*
X55247000Y-56577000D01*
X55227000Y-56577000D01*
X55227000Y-57476250D01*
X55385750Y-57635000D01*
X56476310Y-57635000D01*
X56704480Y-57540489D01*
X56704480Y-57598780D01*
X56748758Y-57834097D01*
X56887830Y-58050221D01*
X57100030Y-58195211D01*
X57351920Y-58246220D01*
X58149480Y-58246220D01*
X58384797Y-58201942D01*
X58499993Y-58127815D01*
X58598630Y-58195211D01*
X58850520Y-58246220D01*
X59648080Y-58246220D01*
X59883397Y-58201942D01*
X60058914Y-58089000D01*
X60156080Y-58089000D01*
X60359222Y-58048593D01*
X60167808Y-58239673D01*
X60025162Y-58583201D01*
X60024838Y-58955167D01*
X60166883Y-59298943D01*
X60429673Y-59562192D01*
X60612238Y-59638000D01*
X58515630Y-59638000D01*
X57338815Y-58461185D01*
X57291837Y-58429795D01*
X57091605Y-58296004D01*
X56973449Y-58272501D01*
X56953162Y-58164683D01*
X56814090Y-57948559D01*
X56601890Y-57803569D01*
X56350000Y-57752560D01*
X53850000Y-57752560D01*
X53614683Y-57796838D01*
X53486718Y-57879181D01*
X53498112Y-57845028D01*
X53475333Y-57523359D01*
X53490301Y-57538327D01*
X53723690Y-57635000D01*
X54814250Y-57635000D01*
X54973000Y-57476250D01*
X54973000Y-56577000D01*
X53373750Y-56577000D01*
X53215000Y-56735750D01*
X53215000Y-57102434D01*
X53140104Y-57089501D01*
X52529605Y-57700000D01*
X53140104Y-58310499D01*
X53223604Y-58296080D01*
X53202560Y-58400000D01*
X53202560Y-59500000D01*
X53246838Y-59735317D01*
X53385910Y-59951441D01*
X53387299Y-59952390D01*
X53253569Y-60148110D01*
X53202560Y-60400000D01*
X53202560Y-61500000D01*
X53222064Y-61603654D01*
X53140104Y-61589501D01*
X52529605Y-62200000D01*
X53140104Y-62810499D01*
X53223604Y-62796080D01*
X53202560Y-62900000D01*
X53202560Y-64000000D01*
X53246838Y-64235317D01*
X53332461Y-64368379D01*
X53277000Y-64352200D01*
X52477000Y-64352200D01*
X52477000Y-65673000D01*
X54432779Y-65673000D01*
X54554596Y-65448951D01*
X54536194Y-65363283D01*
X54263552Y-64866053D01*
X53991293Y-64647440D01*
X56350000Y-64647440D01*
X56585317Y-64603162D01*
X56687910Y-64537146D01*
X56779382Y-64628618D01*
X56941168Y-64736720D01*
X56707808Y-64969673D01*
X56565162Y-65313201D01*
X56564838Y-65685167D01*
X56597533Y-65764295D01*
X56504789Y-65900030D01*
X56453780Y-66151920D01*
X56453780Y-66949480D01*
X56498058Y-67184797D01*
X56572185Y-67299993D01*
X56504789Y-67398630D01*
X56453780Y-67650520D01*
X56453780Y-68448080D01*
X56498058Y-68683397D01*
X56637130Y-68899521D01*
X56849330Y-69044511D01*
X57101220Y-69095520D01*
X57898780Y-69095520D01*
X58134097Y-69051242D01*
X58350221Y-68912170D01*
X58398387Y-68841676D01*
X58623690Y-68935000D01*
X58914250Y-68935000D01*
X59073000Y-68776250D01*
X59073000Y-68175000D01*
X59053000Y-68175000D01*
X59053000Y-67925000D01*
X59073000Y-67925000D01*
X59073000Y-67903000D01*
X59327000Y-67903000D01*
X59327000Y-67925000D01*
X59347000Y-67925000D01*
X59347000Y-68175000D01*
X59327000Y-68175000D01*
X59327000Y-68776250D01*
X59485750Y-68935000D01*
X59776310Y-68935000D01*
X60000267Y-68842234D01*
X60037130Y-68899521D01*
X60249330Y-69044511D01*
X60501220Y-69095520D01*
X61298780Y-69095520D01*
X61534097Y-69051242D01*
X61750221Y-68912170D01*
X61798387Y-68841676D01*
X62023690Y-68935000D01*
X62314250Y-68935000D01*
X62473000Y-68776250D01*
X62473000Y-68175000D01*
X62453000Y-68175000D01*
X62453000Y-67925000D01*
X62473000Y-67925000D01*
X62473000Y-67903000D01*
X62727000Y-67903000D01*
X62727000Y-67925000D01*
X62747000Y-67925000D01*
X62747000Y-68175000D01*
X62727000Y-68175000D01*
X62727000Y-68776250D01*
X62885750Y-68935000D01*
X63176310Y-68935000D01*
X63400267Y-68842234D01*
X63437130Y-68899521D01*
X63649330Y-69044511D01*
X63901220Y-69095520D01*
X64698780Y-69095520D01*
X64934097Y-69051242D01*
X65150221Y-68912170D01*
X65198387Y-68841676D01*
X65423690Y-68935000D01*
X65714250Y-68935000D01*
X65873000Y-68776250D01*
X65873000Y-68175000D01*
X65853000Y-68175000D01*
X65853000Y-67925000D01*
X65873000Y-67925000D01*
X65873000Y-67903000D01*
X66127000Y-67903000D01*
X66127000Y-67925000D01*
X66147000Y-67925000D01*
X66147000Y-68175000D01*
X66127000Y-68175000D01*
X66127000Y-68776250D01*
X66285750Y-68935000D01*
X66576310Y-68935000D01*
X66775219Y-68852609D01*
X66837130Y-68948821D01*
X67049330Y-69093811D01*
X67301220Y-69144820D01*
X68098780Y-69144820D01*
X68334097Y-69100542D01*
X68550221Y-68961470D01*
X68624642Y-68852551D01*
X68823690Y-68935000D01*
X69114250Y-68935000D01*
X69273000Y-68776250D01*
X69273000Y-68175000D01*
X69527000Y-68175000D01*
X69527000Y-68776250D01*
X69685750Y-68935000D01*
X69976310Y-68935000D01*
X70209699Y-68838327D01*
X70388327Y-68659698D01*
X70485000Y-68426309D01*
X70485000Y-68333750D01*
X70326250Y-68175000D01*
X69527000Y-68175000D01*
X69273000Y-68175000D01*
X69253000Y-68175000D01*
X69253000Y-67925000D01*
X69273000Y-67925000D01*
X69273000Y-67903000D01*
X69527000Y-67903000D01*
X69527000Y-67925000D01*
X70326250Y-67925000D01*
X70485000Y-67766250D01*
X70485000Y-67673691D01*
X70388327Y-67440302D01*
X70247090Y-67299064D01*
X70301441Y-67264090D01*
X70446431Y-67051890D01*
X70497440Y-66800000D01*
X70497440Y-66300000D01*
X70453162Y-66064683D01*
X70314090Y-65848559D01*
X70101890Y-65703569D01*
X69850000Y-65652560D01*
X68950000Y-65652560D01*
X68714683Y-65696838D01*
X68634872Y-65748195D01*
X68634983Y-65620821D01*
X71889534Y-65620821D01*
X71919673Y-65651013D01*
X72263201Y-65793659D01*
X72635167Y-65793983D01*
X72978943Y-65651938D01*
X73131484Y-65499662D01*
X73273110Y-65596431D01*
X73323363Y-65606607D01*
X72938105Y-65991865D01*
X72560000Y-65916655D01*
X71986511Y-66030729D01*
X71500330Y-66355585D01*
X71175474Y-66841766D01*
X71061400Y-67415255D01*
X71061400Y-67784745D01*
X71175474Y-68358234D01*
X71500330Y-68844415D01*
X71986511Y-69169271D01*
X72560000Y-69283345D01*
X73133489Y-69169271D01*
X73619670Y-68844415D01*
X73826461Y-68534931D01*
X74197964Y-68950732D01*
X74725209Y-69204709D01*
X74740974Y-69207358D01*
X74973000Y-69086217D01*
X74973000Y-67727000D01*
X74953000Y-67727000D01*
X74953000Y-67473000D01*
X74973000Y-67473000D01*
X74973000Y-67453000D01*
X75227000Y-67453000D01*
X75227000Y-67473000D01*
X75247000Y-67473000D01*
X75247000Y-67727000D01*
X75227000Y-67727000D01*
X75227000Y-69086217D01*
X75459026Y-69207358D01*
X75474791Y-69204709D01*
X76002036Y-68950732D01*
X76373539Y-68534931D01*
X76580330Y-68844415D01*
X77066511Y-69169271D01*
X77640000Y-69283345D01*
X78213489Y-69169271D01*
X78699670Y-68844415D01*
X78709243Y-68830087D01*
X78713238Y-68851317D01*
X78852310Y-69067441D01*
X79064510Y-69212431D01*
X79316400Y-69263440D01*
X81043600Y-69263440D01*
X81278917Y-69219162D01*
X81495041Y-69080090D01*
X81577082Y-68960019D01*
X81635910Y-69051441D01*
X81848110Y-69196431D01*
X82100000Y-69247440D01*
X83000000Y-69247440D01*
X83235317Y-69203162D01*
X83451441Y-69064090D01*
X83596431Y-68851890D01*
X83647440Y-68600000D01*
X83647440Y-68035750D01*
X84865000Y-68035750D01*
X84865000Y-68726310D01*
X84961673Y-68959699D01*
X85140302Y-69138327D01*
X85373691Y-69235000D01*
X85664250Y-69235000D01*
X85823000Y-69076250D01*
X85823000Y-67877000D01*
X86077000Y-67877000D01*
X86077000Y-69076250D01*
X86235750Y-69235000D01*
X86526309Y-69235000D01*
X86759698Y-69138327D01*
X86938327Y-68959699D01*
X87035000Y-68726310D01*
X87035000Y-68035750D01*
X86876250Y-67877000D01*
X86077000Y-67877000D01*
X85823000Y-67877000D01*
X85023750Y-67877000D01*
X84865000Y-68035750D01*
X83647440Y-68035750D01*
X83647440Y-66900000D01*
X83603162Y-66664683D01*
X83464090Y-66448559D01*
X83312000Y-66344640D01*
X83312000Y-63939630D01*
X85637370Y-66265000D01*
X85373691Y-66265000D01*
X85140302Y-66361673D01*
X84961673Y-66540301D01*
X84865000Y-66773690D01*
X84865000Y-67464250D01*
X85023750Y-67623000D01*
X85823000Y-67623000D01*
X85823000Y-67603000D01*
X86077000Y-67603000D01*
X86077000Y-67623000D01*
X86876250Y-67623000D01*
X86935810Y-67563440D01*
X87374986Y-68002616D01*
X87622196Y-68167797D01*
X87913801Y-68225801D01*
X89996199Y-68225801D01*
X90287804Y-68167797D01*
X90535014Y-68002616D01*
X90834002Y-67703628D01*
X91160641Y-67768600D01*
X91219359Y-67768600D01*
X91792848Y-67654526D01*
X92279029Y-67329670D01*
X92603885Y-66843489D01*
X92717959Y-66270000D01*
X92603885Y-65696511D01*
X92279029Y-65210330D01*
X91964248Y-65000000D01*
X92279029Y-64789670D01*
X92603885Y-64303489D01*
X92717959Y-63730000D01*
X92603885Y-63156511D01*
X92279029Y-62670330D01*
X91964248Y-62460000D01*
X92279029Y-62249670D01*
X92603885Y-61763489D01*
X92717959Y-61190000D01*
X92603885Y-60616511D01*
X92279029Y-60130330D01*
X91964248Y-59920000D01*
X92279029Y-59709670D01*
X92603885Y-59223489D01*
X92717959Y-58650000D01*
X92603885Y-58076511D01*
X92279029Y-57590330D01*
X91955772Y-57374336D01*
X92078490Y-57316821D01*
X92472688Y-56884947D01*
X92644958Y-56469026D01*
X92523817Y-56237000D01*
X91317000Y-56237000D01*
X91317000Y-56257000D01*
X91063000Y-56257000D01*
X91063000Y-56237000D01*
X91043000Y-56237000D01*
X91043000Y-55983000D01*
X91063000Y-55983000D01*
X91063000Y-53697000D01*
X91317000Y-53697000D01*
X91317000Y-55983000D01*
X92523817Y-55983000D01*
X92644958Y-55750974D01*
X92472688Y-55335053D01*
X92078490Y-54903179D01*
X91943687Y-54840000D01*
X92078490Y-54776821D01*
X92472688Y-54344947D01*
X92644958Y-53929026D01*
X92523817Y-53697000D01*
X91317000Y-53697000D01*
X91063000Y-53697000D01*
X91043000Y-53697000D01*
X91043000Y-53443000D01*
X91063000Y-53443000D01*
X91063000Y-52235531D01*
X91317000Y-52235531D01*
X91317000Y-53443000D01*
X92523817Y-53443000D01*
X92644958Y-53210974D01*
X92472688Y-52795053D01*
X92078490Y-52363179D01*
X91549027Y-52115032D01*
X91317000Y-52235531D01*
X91063000Y-52235531D01*
X90830973Y-52115032D01*
X90301510Y-52363179D01*
X90131505Y-52549433D01*
X90116762Y-52471083D01*
X89977690Y-52254959D01*
X89765490Y-52109969D01*
X89513600Y-52058960D01*
X87786400Y-52058960D01*
X87551083Y-52103238D01*
X87334959Y-52242310D01*
X87189969Y-52454510D01*
X87138960Y-52706400D01*
X87138960Y-54433600D01*
X87183238Y-54668917D01*
X87322310Y-54885041D01*
X87534510Y-55030031D01*
X87578131Y-55038864D01*
X87560971Y-55050330D01*
X87446933Y-55221000D01*
X87428686Y-55221000D01*
X87088481Y-55288670D01*
X86800068Y-55481382D01*
X86004660Y-56276790D01*
X81589000Y-56276790D01*
X81589000Y-53689000D01*
X81715879Y-53689000D01*
X81873110Y-53796431D01*
X82125000Y-53847440D01*
X82875000Y-53847440D01*
X83110317Y-53803162D01*
X83287730Y-53689000D01*
X83515879Y-53689000D01*
X83673110Y-53796431D01*
X83925000Y-53847440D01*
X84675000Y-53847440D01*
X84910317Y-53803162D01*
X85126441Y-53664090D01*
X85271431Y-53451890D01*
X85322440Y-53200000D01*
X85322440Y-52400000D01*
X85278162Y-52164683D01*
X85211671Y-52061354D01*
X85213327Y-52059698D01*
X85310000Y-51826309D01*
X85310000Y-51585750D01*
X85151250Y-51427000D01*
X84427000Y-51427000D01*
X84427000Y-51447000D01*
X84173000Y-51447000D01*
X84173000Y-51427000D01*
X83448750Y-51427000D01*
X83400000Y-51475750D01*
X83351250Y-51427000D01*
X82627000Y-51427000D01*
X82627000Y-51447000D01*
X82373000Y-51447000D01*
X82373000Y-51427000D01*
X81648750Y-51427000D01*
X81600000Y-51475750D01*
X81551250Y-51427000D01*
X80827000Y-51427000D01*
X80827000Y-51447000D01*
X80573000Y-51447000D01*
X80573000Y-51427000D01*
X79848750Y-51427000D01*
X79750000Y-51525750D01*
X79651250Y-51427000D01*
X78927000Y-51427000D01*
X78927000Y-51447000D01*
X78673000Y-51447000D01*
X78673000Y-51427000D01*
X78653000Y-51427000D01*
X78653000Y-51173000D01*
X78673000Y-51173000D01*
X78673000Y-51153000D01*
X78927000Y-51153000D01*
X78927000Y-51173000D01*
X79651250Y-51173000D01*
X79750000Y-51074250D01*
X79848750Y-51173000D01*
X80573000Y-51173000D01*
X80573000Y-51153000D01*
X80827000Y-51153000D01*
X80827000Y-51173000D01*
X81551250Y-51173000D01*
X81600000Y-51124250D01*
X81648750Y-51173000D01*
X82373000Y-51173000D01*
X82373000Y-51153000D01*
X82627000Y-51153000D01*
X82627000Y-51173000D01*
X83351250Y-51173000D01*
X83400000Y-51124250D01*
X83448750Y-51173000D01*
X84173000Y-51173000D01*
X84173000Y-51153000D01*
X84427000Y-51153000D01*
X84427000Y-51173000D01*
X85151250Y-51173000D01*
X85310000Y-51014250D01*
X85310000Y-50773691D01*
X85283618Y-50710000D01*
X90930069Y-50710000D01*
X92253707Y-50973288D01*
X93316546Y-51683454D01*
X94026712Y-52746295D01*
X94290000Y-54069931D01*
X94290000Y-65930069D01*
X94026712Y-67253705D01*
X93316546Y-68316546D01*
X92253707Y-69026712D01*
X90930069Y-69290000D01*
X53769931Y-69290000D01*
X52446295Y-69026712D01*
X51383454Y-68316546D01*
X50673288Y-67253707D01*
X50595268Y-66861473D01*
X50878618Y-67088992D01*
X51423000Y-67247800D01*
X52223000Y-67247800D01*
X52223000Y-65927000D01*
X52477000Y-65927000D01*
X52477000Y-67247800D01*
X53277000Y-67247800D01*
X53821382Y-67088992D01*
X54263552Y-66733947D01*
X54536194Y-66236717D01*
X54554596Y-66151049D01*
X54432779Y-65927000D01*
X52477000Y-65927000D01*
X52223000Y-65927000D01*
X52203000Y-65927000D01*
X52203000Y-65673000D01*
X52223000Y-65673000D01*
X52223000Y-64352200D01*
X51423000Y-64352200D01*
X50878618Y-64511008D01*
X50436448Y-64866053D01*
X50410000Y-64914287D01*
X50410000Y-62990104D01*
X51739501Y-62990104D01*
X51776648Y-63205217D01*
X52204972Y-63348112D01*
X52655375Y-63316217D01*
X52923352Y-63205217D01*
X52960499Y-62990104D01*
X52350000Y-62379605D01*
X51739501Y-62990104D01*
X50410000Y-62990104D01*
X50410000Y-62054972D01*
X51201888Y-62054972D01*
X51233783Y-62505375D01*
X51344783Y-62773352D01*
X51559896Y-62810499D01*
X52170395Y-62200000D01*
X51559896Y-61589501D01*
X51344783Y-61626648D01*
X51201888Y-62054972D01*
X50410000Y-62054972D01*
X50410000Y-61409896D01*
X51739501Y-61409896D01*
X52350000Y-62020395D01*
X52960499Y-61409896D01*
X52923352Y-61194783D01*
X52495028Y-61051888D01*
X52044625Y-61083783D01*
X51776648Y-61194783D01*
X51739501Y-61409896D01*
X50410000Y-61409896D01*
X50410000Y-58490104D01*
X51739501Y-58490104D01*
X51776648Y-58705217D01*
X52204972Y-58848112D01*
X52655375Y-58816217D01*
X52923352Y-58705217D01*
X52960499Y-58490104D01*
X52350000Y-57879605D01*
X51739501Y-58490104D01*
X50410000Y-58490104D01*
X50410000Y-57554972D01*
X51201888Y-57554972D01*
X51233783Y-58005375D01*
X51344783Y-58273352D01*
X51559896Y-58310499D01*
X52170395Y-57700000D01*
X51559896Y-57089501D01*
X51344783Y-57126648D01*
X51201888Y-57554972D01*
X50410000Y-57554972D01*
X50410000Y-56909896D01*
X51739501Y-56909896D01*
X52350000Y-57520395D01*
X52960499Y-56909896D01*
X52923352Y-56694783D01*
X52495028Y-56551888D01*
X52044625Y-56583783D01*
X51776648Y-56694783D01*
X51739501Y-56909896D01*
X50410000Y-56909896D01*
X50410000Y-54985713D01*
X50436448Y-55033947D01*
X50878618Y-55388992D01*
X51423000Y-55547800D01*
X52223000Y-55547800D01*
X52223000Y-54227000D01*
X52477000Y-54227000D01*
X52477000Y-55547800D01*
X53277000Y-55547800D01*
X53315368Y-55536607D01*
X53311673Y-55540302D01*
X53215000Y-55773691D01*
X53215000Y-56164250D01*
X53373750Y-56323000D01*
X54973000Y-56323000D01*
X54973000Y-55423750D01*
X54814250Y-55265000D01*
X53975801Y-55265000D01*
X54263552Y-55033947D01*
X54536194Y-54536717D01*
X54554596Y-54451049D01*
X54432779Y-54227000D01*
X52477000Y-54227000D01*
X52223000Y-54227000D01*
X52203000Y-54227000D01*
X52203000Y-53973000D01*
X52223000Y-53973000D01*
X52223000Y-52652200D01*
X52477000Y-52652200D01*
X52477000Y-53973000D01*
X54432779Y-53973000D01*
X54554596Y-53748951D01*
X54536194Y-53663283D01*
X54490359Y-53579691D01*
X61037000Y-53579691D01*
X61037000Y-53928250D01*
X61195750Y-54087000D01*
X62561000Y-54087000D01*
X62561000Y-53229750D01*
X62815000Y-53229750D01*
X62815000Y-54087000D01*
X64180250Y-54087000D01*
X64339000Y-53928250D01*
X64339000Y-53579691D01*
X64242327Y-53346302D01*
X64063699Y-53167673D01*
X63830310Y-53071000D01*
X62973750Y-53071000D01*
X62815000Y-53229750D01*
X62561000Y-53229750D01*
X62402250Y-53071000D01*
X61545690Y-53071000D01*
X61312301Y-53167673D01*
X61133673Y-53346302D01*
X61037000Y-53579691D01*
X54490359Y-53579691D01*
X54263552Y-53166053D01*
X53821382Y-52811008D01*
X53277000Y-52652200D01*
X52477000Y-52652200D01*
X52223000Y-52652200D01*
X51423000Y-52652200D01*
X50878618Y-52811008D01*
X50618940Y-53019519D01*
X50673288Y-52746293D01*
X51383454Y-51683454D01*
X52446295Y-50973288D01*
X53769931Y-50710000D01*
X70716382Y-50710000D01*
X70690000Y-50773691D01*
G36*
X75773110Y-56896431D02*
X75847808Y-56911558D01*
X75871250Y-56935000D01*
X75901310Y-56935000D01*
X75921753Y-56926532D01*
X76025000Y-56947440D01*
X76275000Y-56947440D01*
X76404589Y-56923056D01*
X76525000Y-56947440D01*
X76775000Y-56947440D01*
X76904589Y-56923056D01*
X77025000Y-56947440D01*
X77275000Y-56947440D01*
X77404589Y-56923056D01*
X77525000Y-56947440D01*
X77775000Y-56947440D01*
X77904589Y-56923056D01*
X78025000Y-56947440D01*
X78275000Y-56947440D01*
X78404589Y-56923056D01*
X78512334Y-56944875D01*
X78521368Y-56958395D01*
X78611185Y-57092815D01*
X79307185Y-57788816D01*
X79443061Y-57879605D01*
X79495199Y-57914442D01*
X79488442Y-57947808D01*
X79465000Y-57971250D01*
X79465000Y-58001310D01*
X79473468Y-58021753D01*
X79452560Y-58125000D01*
X79452560Y-58315089D01*
X79164833Y-58314838D01*
X78821057Y-58456883D01*
X78557808Y-58719673D01*
X78415162Y-59063201D01*
X78414838Y-59435167D01*
X78556883Y-59778943D01*
X78819673Y-60042192D01*
X79163201Y-60184838D01*
X79452560Y-60185090D01*
X79452560Y-60375000D01*
X79476944Y-60504589D01*
X79452560Y-60625000D01*
X79452560Y-60875000D01*
X79476944Y-61004589D01*
X79452560Y-61125000D01*
X79452560Y-61375000D01*
X79476944Y-61504589D01*
X79452560Y-61625000D01*
X79452560Y-61875000D01*
X79476944Y-62004589D01*
X79452560Y-62125000D01*
X79452560Y-62375000D01*
X79476944Y-62504589D01*
X79452560Y-62625000D01*
X79452560Y-62875000D01*
X79494328Y-63096975D01*
X79275000Y-63052560D01*
X79025000Y-63052560D01*
X78919295Y-63072450D01*
X78901310Y-63065000D01*
X78871250Y-63065000D01*
X78850938Y-63085312D01*
X78789683Y-63096838D01*
X78649273Y-63187190D01*
X78526890Y-63103569D01*
X78452192Y-63088442D01*
X78428750Y-63065000D01*
X78412000Y-63065000D01*
X78412000Y-62732893D01*
X78353996Y-62441288D01*
X78188815Y-62194078D01*
X77627322Y-61632585D01*
X77593996Y-61610317D01*
X77380112Y-61467404D01*
X77088507Y-61409400D01*
X75876785Y-61409400D01*
X75889762Y-61378148D01*
X75890086Y-61006182D01*
X75748041Y-60662406D01*
X75485251Y-60399157D01*
X75471955Y-60393636D01*
X75472019Y-60320347D01*
X75329974Y-59976571D01*
X75067184Y-59713322D01*
X74935124Y-59658486D01*
X74935162Y-59614833D01*
X74793117Y-59271057D01*
X74595192Y-59072786D01*
X74602305Y-59055656D01*
X74602629Y-58683690D01*
X74486676Y-58403062D01*
X74563201Y-58434838D01*
X74935167Y-58435162D01*
X75278943Y-58293117D01*
X75542192Y-58030327D01*
X75684838Y-57686799D01*
X75685162Y-57314833D01*
X75543117Y-56971057D01*
X75480871Y-56908703D01*
X75510317Y-56903162D01*
X75650727Y-56812810D01*
X75773110Y-56896431D01*
X75773110Y-56896431D01*
G37*
X75773110Y-56896431D02*
X75847808Y-56911558D01*
X75871250Y-56935000D01*
X75901310Y-56935000D01*
X75921753Y-56926532D01*
X76025000Y-56947440D01*
X76275000Y-56947440D01*
X76404589Y-56923056D01*
X76525000Y-56947440D01*
X76775000Y-56947440D01*
X76904589Y-56923056D01*
X77025000Y-56947440D01*
X77275000Y-56947440D01*
X77404589Y-56923056D01*
X77525000Y-56947440D01*
X77775000Y-56947440D01*
X77904589Y-56923056D01*
X78025000Y-56947440D01*
X78275000Y-56947440D01*
X78404589Y-56923056D01*
X78512334Y-56944875D01*
X78521368Y-56958395D01*
X78611185Y-57092815D01*
X79307185Y-57788816D01*
X79443061Y-57879605D01*
X79495199Y-57914442D01*
X79488442Y-57947808D01*
X79465000Y-57971250D01*
X79465000Y-58001310D01*
X79473468Y-58021753D01*
X79452560Y-58125000D01*
X79452560Y-58315089D01*
X79164833Y-58314838D01*
X78821057Y-58456883D01*
X78557808Y-58719673D01*
X78415162Y-59063201D01*
X78414838Y-59435167D01*
X78556883Y-59778943D01*
X78819673Y-60042192D01*
X79163201Y-60184838D01*
X79452560Y-60185090D01*
X79452560Y-60375000D01*
X79476944Y-60504589D01*
X79452560Y-60625000D01*
X79452560Y-60875000D01*
X79476944Y-61004589D01*
X79452560Y-61125000D01*
X79452560Y-61375000D01*
X79476944Y-61504589D01*
X79452560Y-61625000D01*
X79452560Y-61875000D01*
X79476944Y-62004589D01*
X79452560Y-62125000D01*
X79452560Y-62375000D01*
X79476944Y-62504589D01*
X79452560Y-62625000D01*
X79452560Y-62875000D01*
X79494328Y-63096975D01*
X79275000Y-63052560D01*
X79025000Y-63052560D01*
X78919295Y-63072450D01*
X78901310Y-63065000D01*
X78871250Y-63065000D01*
X78850938Y-63085312D01*
X78789683Y-63096838D01*
X78649273Y-63187190D01*
X78526890Y-63103569D01*
X78452192Y-63088442D01*
X78428750Y-63065000D01*
X78412000Y-63065000D01*
X78412000Y-62732893D01*
X78353996Y-62441288D01*
X78188815Y-62194078D01*
X77627322Y-61632585D01*
X77593996Y-61610317D01*
X77380112Y-61467404D01*
X77088507Y-61409400D01*
X75876785Y-61409400D01*
X75889762Y-61378148D01*
X75890086Y-61006182D01*
X75748041Y-60662406D01*
X75485251Y-60399157D01*
X75471955Y-60393636D01*
X75472019Y-60320347D01*
X75329974Y-59976571D01*
X75067184Y-59713322D01*
X74935124Y-59658486D01*
X74935162Y-59614833D01*
X74793117Y-59271057D01*
X74595192Y-59072786D01*
X74602305Y-59055656D01*
X74602629Y-58683690D01*
X74486676Y-58403062D01*
X74563201Y-58434838D01*
X74935167Y-58435162D01*
X75278943Y-58293117D01*
X75542192Y-58030327D01*
X75684838Y-57686799D01*
X75685162Y-57314833D01*
X75543117Y-56971057D01*
X75480871Y-56908703D01*
X75510317Y-56903162D01*
X75650727Y-56812810D01*
X75773110Y-56896431D01*
G36*
X57875000Y-62473000D02*
X57897000Y-62473000D01*
X57897000Y-62727000D01*
X57875000Y-62727000D01*
X57875000Y-62747000D01*
X57625000Y-62747000D01*
X57625000Y-62727000D01*
X57603000Y-62727000D01*
X57603000Y-62473000D01*
X57625000Y-62473000D01*
X57625000Y-62453000D01*
X57875000Y-62453000D01*
X57875000Y-62473000D01*
X57875000Y-62473000D01*
G37*
X57875000Y-62473000D02*
X57897000Y-62473000D01*
X57897000Y-62727000D01*
X57875000Y-62727000D01*
X57875000Y-62747000D01*
X57625000Y-62747000D01*
X57625000Y-62727000D01*
X57603000Y-62727000D01*
X57603000Y-62473000D01*
X57625000Y-62473000D01*
X57625000Y-62453000D01*
X57875000Y-62453000D01*
X57875000Y-62473000D01*
G36*
X56961673Y-61790301D02*
X56865000Y-62023690D01*
X56865000Y-62314250D01*
X57023748Y-62472998D01*
X56865000Y-62472998D01*
X56865000Y-62527675D01*
X56814090Y-62448559D01*
X56601890Y-62303569D01*
X56350000Y-62252560D01*
X53850000Y-62252560D01*
X53614683Y-62296838D01*
X53486718Y-62379181D01*
X53498112Y-62345028D01*
X53474528Y-62011991D01*
X53598110Y-62096431D01*
X53850000Y-62147440D01*
X56350000Y-62147440D01*
X56585317Y-62103162D01*
X56801441Y-61964090D01*
X56946431Y-61751890D01*
X56954509Y-61712000D01*
X57039974Y-61712000D01*
X56961673Y-61790301D01*
X56961673Y-61790301D01*
G37*
X56961673Y-61790301D02*
X56865000Y-62023690D01*
X56865000Y-62314250D01*
X57023748Y-62472998D01*
X56865000Y-62472998D01*
X56865000Y-62527675D01*
X56814090Y-62448559D01*
X56601890Y-62303569D01*
X56350000Y-62252560D01*
X53850000Y-62252560D01*
X53614683Y-62296838D01*
X53486718Y-62379181D01*
X53498112Y-62345028D01*
X53474528Y-62011991D01*
X53598110Y-62096431D01*
X53850000Y-62147440D01*
X56350000Y-62147440D01*
X56585317Y-62103162D01*
X56801441Y-61964090D01*
X56946431Y-61751890D01*
X56954509Y-61712000D01*
X57039974Y-61712000D01*
X56961673Y-61790301D01*
G36*
X75853569Y-50898110D02*
X75802560Y-51150000D01*
X75802560Y-52850000D01*
X75845922Y-53080448D01*
X75611185Y-53315185D01*
X75446004Y-53562395D01*
X75388000Y-53854000D01*
X75388000Y-53941008D01*
X75158177Y-53711185D01*
X75124975Y-53689000D01*
X74910967Y-53546004D01*
X74619362Y-53488000D01*
X73060466Y-53488000D01*
X73057472Y-53485000D01*
X73214250Y-53485000D01*
X73373000Y-53326250D01*
X73373000Y-52127000D01*
X73627000Y-52127000D01*
X73627000Y-53326250D01*
X73785750Y-53485000D01*
X74076309Y-53485000D01*
X74309698Y-53388327D01*
X74488327Y-53209699D01*
X74585000Y-52976310D01*
X74585000Y-52285750D01*
X74426250Y-52127000D01*
X73627000Y-52127000D01*
X73373000Y-52127000D01*
X73353000Y-52127000D01*
X73353000Y-51873000D01*
X73373000Y-51873000D01*
X73373000Y-51853000D01*
X73627000Y-51853000D01*
X73627000Y-51873000D01*
X74426250Y-51873000D01*
X74585000Y-51714250D01*
X74585000Y-51023690D01*
X74488327Y-50790301D01*
X74408026Y-50710000D01*
X75982099Y-50710000D01*
X75853569Y-50898110D01*
X75853569Y-50898110D01*
G37*
X75853569Y-50898110D02*
X75802560Y-51150000D01*
X75802560Y-52850000D01*
X75845922Y-53080448D01*
X75611185Y-53315185D01*
X75446004Y-53562395D01*
X75388000Y-53854000D01*
X75388000Y-53941008D01*
X75158177Y-53711185D01*
X75124975Y-53689000D01*
X74910967Y-53546004D01*
X74619362Y-53488000D01*
X73060466Y-53488000D01*
X73057472Y-53485000D01*
X73214250Y-53485000D01*
X73373000Y-53326250D01*
X73373000Y-52127000D01*
X73627000Y-52127000D01*
X73627000Y-53326250D01*
X73785750Y-53485000D01*
X74076309Y-53485000D01*
X74309698Y-53388327D01*
X74488327Y-53209699D01*
X74585000Y-52976310D01*
X74585000Y-52285750D01*
X74426250Y-52127000D01*
X73627000Y-52127000D01*
X73373000Y-52127000D01*
X73353000Y-52127000D01*
X73353000Y-51873000D01*
X73373000Y-51873000D01*
X73373000Y-51853000D01*
X73627000Y-51853000D01*
X73627000Y-51873000D01*
X74426250Y-51873000D01*
X74585000Y-51714250D01*
X74585000Y-51023690D01*
X74488327Y-50790301D01*
X74408026Y-50710000D01*
X75982099Y-50710000D01*
X75853569Y-50898110D01*
M02*
