M48
;DRILL file {KiCad 4.0.2-stable} date 2016-10-02 16:05:18
;FORMAT={-:-/ absolute / inch / decimal}
FMAT,2
INCH,TZ
T1C0.012
T2C0.016
T3C0.035
T4C0.039
T5C0.040
%
G90
G05
M72
T1
X2.1929Y-2.6496
X2.2677Y-2.0551
X2.7264Y-2.0079
X2.815Y-2.1949
X3.3031Y-2.6535
X3.3386Y-2.1969
X3.3858Y-2.0177
T2
X2.2638Y-2.5787
X2.3031Y-2.5197
X2.3976Y-2.5787
X2.4Y-2.3138
X2.5039Y-2.4646
X2.5315Y-2.5787
X2.5453Y-2.2276
X2.6654Y-2.5827
X2.8524Y-2.5535
X2.8543Y-2.1358
X2.9003Y-2.3177
X2.9134Y-2.3543
X2.9345Y-2.3821
X2.9429Y-2.2638
X2.951Y-2.4091
X2.9764Y-2.252
X3.1024Y-2.4488
X3.124Y-2.3327
X3.1542Y-2.5424
X3.2382Y-2.4902
T4
X2.061Y-2.2717
X2.061Y-2.4488
T5
X2.8567Y-2.6614
X2.9567Y-2.6614
X3.0567Y-2.6614
X3.1567Y-2.6614
X3.4902Y-2.1091
X3.4902Y-2.2091
X3.4902Y-2.3091
X3.4902Y-2.4091
X3.4902Y-2.5091
X3.4902Y-2.6091
X3.5902Y-2.1091
X3.5902Y-2.2091
X3.5902Y-2.3091
X3.5902Y-2.4091
X3.5902Y-2.5091
X3.5902Y-2.6091
T3
X2.0925Y-2.1299G85X2.0295Y-2.1299
G05
X2.0925Y-2.5906G85X2.0295Y-2.5906
G05
T0
M30
