G04 #@! TF.FileFunction,Legend,Top*
%FSLAX46Y46*%
G04 Gerber Fmt 4.6, Leading zero omitted, Abs format (unit mm)*
G04 Created by KiCad (PCBNEW 4.0.2-stable) date 2016-10-02 16:05:12*
%MOMM*%
G01*
G04 APERTURE LIST*
%ADD10C,0.100000*%
%ADD11C,0.150000*%
G04 APERTURE END LIST*
D10*
D11*
X87238095Y-67952381D02*
X87238095Y-68761905D01*
X87285714Y-68857143D01*
X87333333Y-68904762D01*
X87428571Y-68952381D01*
X87619048Y-68952381D01*
X87714286Y-68904762D01*
X87761905Y-68857143D01*
X87809524Y-68761905D01*
X87809524Y-67952381D01*
X88238095Y-68904762D02*
X88380952Y-68952381D01*
X88619048Y-68952381D01*
X88714286Y-68904762D01*
X88761905Y-68857143D01*
X88809524Y-68761905D01*
X88809524Y-68666667D01*
X88761905Y-68571429D01*
X88714286Y-68523810D01*
X88619048Y-68476190D01*
X88428571Y-68428571D01*
X88333333Y-68380952D01*
X88285714Y-68333333D01*
X88238095Y-68238095D01*
X88238095Y-68142857D01*
X88285714Y-68047619D01*
X88333333Y-68000000D01*
X88428571Y-67952381D01*
X88666667Y-67952381D01*
X88809524Y-68000000D01*
X89809524Y-68952381D02*
X89476190Y-68476190D01*
X89238095Y-68952381D02*
X89238095Y-67952381D01*
X89619048Y-67952381D01*
X89714286Y-68000000D01*
X89761905Y-68047619D01*
X89809524Y-68142857D01*
X89809524Y-68285714D01*
X89761905Y-68380952D01*
X89714286Y-68428571D01*
X89619048Y-68476190D01*
X89238095Y-68476190D01*
X53404762Y-51152381D02*
X53976191Y-51152381D01*
X53690476Y-52152381D02*
X53690476Y-51152381D01*
X54309524Y-52152381D02*
X54309524Y-51152381D01*
X54309524Y-51628571D02*
X54880953Y-51628571D01*
X54880953Y-52152381D02*
X54880953Y-51152381D01*
X55357143Y-51152381D02*
X55357143Y-51961905D01*
X55404762Y-52057143D01*
X55452381Y-52104762D01*
X55547619Y-52152381D01*
X55738096Y-52152381D01*
X55833334Y-52104762D01*
X55880953Y-52057143D01*
X55928572Y-51961905D01*
X55928572Y-51152381D01*
X56404762Y-52152381D02*
X56404762Y-51152381D01*
X56738096Y-51866667D01*
X57071429Y-51152381D01*
X57071429Y-52152381D01*
X57880953Y-51628571D02*
X58023810Y-51676190D01*
X58071429Y-51723810D01*
X58119048Y-51819048D01*
X58119048Y-51961905D01*
X58071429Y-52057143D01*
X58023810Y-52104762D01*
X57928572Y-52152381D01*
X57547619Y-52152381D01*
X57547619Y-51152381D01*
X57880953Y-51152381D01*
X57976191Y-51200000D01*
X58023810Y-51247619D01*
X58071429Y-51342857D01*
X58071429Y-51438095D01*
X58023810Y-51533333D01*
X57976191Y-51580952D01*
X57880953Y-51628571D01*
X57547619Y-51628571D01*
X58547619Y-52152381D02*
X58547619Y-51152381D01*
X59023809Y-52152381D02*
X59023809Y-51152381D01*
X59595238Y-52152381D01*
X59595238Y-51152381D01*
X60023809Y-51866667D02*
X60500000Y-51866667D01*
X59928571Y-52152381D02*
X60261904Y-51152381D01*
X60595238Y-52152381D01*
X60785714Y-51152381D02*
X61357143Y-51152381D01*
X61071428Y-52152381D02*
X61071428Y-51152381D01*
X61880952Y-51152381D02*
X62071429Y-51152381D01*
X62166667Y-51200000D01*
X62261905Y-51295238D01*
X62309524Y-51485714D01*
X62309524Y-51819048D01*
X62261905Y-52009524D01*
X62166667Y-52104762D01*
X62071429Y-52152381D01*
X61880952Y-52152381D01*
X61785714Y-52104762D01*
X61690476Y-52009524D01*
X61642857Y-51819048D01*
X61642857Y-51485714D01*
X61690476Y-51295238D01*
X61785714Y-51200000D01*
X61880952Y-51152381D01*
X63309524Y-52152381D02*
X62976190Y-51676190D01*
X62738095Y-52152381D02*
X62738095Y-51152381D01*
X63119048Y-51152381D01*
X63214286Y-51200000D01*
X63261905Y-51247619D01*
X63309524Y-51342857D01*
X63309524Y-51485714D01*
X63261905Y-51580952D01*
X63214286Y-51628571D01*
X63119048Y-51676190D01*
X62738095Y-51676190D01*
X63738095Y-51771429D02*
X64500000Y-51771429D01*
X65547619Y-52152381D02*
X65214285Y-51676190D01*
X64976190Y-52152381D02*
X64976190Y-51152381D01*
X65357143Y-51152381D01*
X65452381Y-51200000D01*
X65500000Y-51247619D01*
X65547619Y-51342857D01*
X65547619Y-51485714D01*
X65500000Y-51580952D01*
X65452381Y-51628571D01*
X65357143Y-51676190D01*
X64976190Y-51676190D01*
X66500000Y-52152381D02*
X65928571Y-52152381D01*
X66214285Y-52152381D02*
X66214285Y-51152381D01*
X66119047Y-51295238D01*
X66023809Y-51390476D01*
X65928571Y-51438095D01*
X70566667Y-66083333D02*
X70666667Y-66116667D01*
X70833334Y-66116667D01*
X70900001Y-66083333D01*
X70933334Y-66050000D01*
X70966667Y-65983333D01*
X70966667Y-65916667D01*
X70933334Y-65850000D01*
X70900001Y-65816667D01*
X70833334Y-65783333D01*
X70700001Y-65750000D01*
X70633334Y-65716667D01*
X70600001Y-65683333D01*
X70566667Y-65616667D01*
X70566667Y-65550000D01*
X70600001Y-65483333D01*
X70633334Y-65450000D01*
X70700001Y-65416667D01*
X70866667Y-65416667D01*
X70966667Y-65450000D01*
X71200001Y-65416667D02*
X71366668Y-66116667D01*
X71500001Y-65616667D01*
X71633334Y-66116667D01*
X71800001Y-65416667D01*
X72066668Y-66116667D02*
X72066668Y-65416667D01*
X72233334Y-65416667D01*
X72333334Y-65450000D01*
X72400001Y-65516667D01*
X72433334Y-65583333D01*
X72466668Y-65716667D01*
X72466668Y-65816667D01*
X72433334Y-65950000D01*
X72400001Y-66016667D01*
X72333334Y-66083333D01*
X72233334Y-66116667D01*
X72066668Y-66116667D01*
X72766668Y-66116667D02*
X72766668Y-65416667D01*
X73233334Y-65416667D02*
X73366667Y-65416667D01*
X73433334Y-65450000D01*
X73500001Y-65516667D01*
X73533334Y-65650000D01*
X73533334Y-65883333D01*
X73500001Y-66016667D01*
X73433334Y-66083333D01*
X73366667Y-66116667D01*
X73233334Y-66116667D01*
X73166667Y-66083333D01*
X73100001Y-66016667D01*
X73066667Y-65883333D01*
X73066667Y-65650000D01*
X73100001Y-65516667D01*
X73166667Y-65450000D01*
X73233334Y-65416667D01*
X74733333Y-65450000D02*
X74666667Y-65416667D01*
X74566667Y-65416667D01*
X74466667Y-65450000D01*
X74400000Y-65516667D01*
X74366667Y-65583333D01*
X74333333Y-65716667D01*
X74333333Y-65816667D01*
X74366667Y-65950000D01*
X74400000Y-66016667D01*
X74466667Y-66083333D01*
X74566667Y-66116667D01*
X74633333Y-66116667D01*
X74733333Y-66083333D01*
X74766667Y-66050000D01*
X74766667Y-65816667D01*
X74633333Y-65816667D01*
X75066667Y-66116667D02*
X75066667Y-65416667D01*
X75466667Y-66116667D01*
X75466667Y-65416667D01*
X75800000Y-66116667D02*
X75800000Y-65416667D01*
X75966666Y-65416667D01*
X76066666Y-65450000D01*
X76133333Y-65516667D01*
X76166666Y-65583333D01*
X76200000Y-65716667D01*
X76200000Y-65816667D01*
X76166666Y-65950000D01*
X76133333Y-66016667D01*
X76066666Y-66083333D01*
X75966666Y-66116667D01*
X75800000Y-66116667D01*
X76999999Y-66083333D02*
X77099999Y-66116667D01*
X77266666Y-66116667D01*
X77333333Y-66083333D01*
X77366666Y-66050000D01*
X77399999Y-65983333D01*
X77399999Y-65916667D01*
X77366666Y-65850000D01*
X77333333Y-65816667D01*
X77266666Y-65783333D01*
X77133333Y-65750000D01*
X77066666Y-65716667D01*
X77033333Y-65683333D01*
X76999999Y-65616667D01*
X76999999Y-65550000D01*
X77033333Y-65483333D01*
X77066666Y-65450000D01*
X77133333Y-65416667D01*
X77299999Y-65416667D01*
X77399999Y-65450000D01*
X77633333Y-65416667D02*
X77800000Y-66116667D01*
X77933333Y-65616667D01*
X78066666Y-66116667D01*
X78233333Y-65416667D01*
X78900000Y-66050000D02*
X78866666Y-66083333D01*
X78766666Y-66116667D01*
X78700000Y-66116667D01*
X78600000Y-66083333D01*
X78533333Y-66016667D01*
X78500000Y-65950000D01*
X78466666Y-65816667D01*
X78466666Y-65716667D01*
X78500000Y-65583333D01*
X78533333Y-65516667D01*
X78600000Y-65450000D01*
X78700000Y-65416667D01*
X78766666Y-65416667D01*
X78866666Y-65450000D01*
X78900000Y-65483333D01*
X79533333Y-66116667D02*
X79200000Y-66116667D01*
X79200000Y-65416667D01*
X79766667Y-66116667D02*
X79766667Y-65416667D01*
X80166667Y-66116667D02*
X79866667Y-65716667D01*
X80166667Y-65416667D02*
X79766667Y-65816667D01*
X81000000Y-65850000D02*
X81533333Y-65850000D01*
X81266666Y-66116667D02*
X81266666Y-65583333D01*
X81800000Y-65416667D02*
X82233333Y-65416667D01*
X82000000Y-65683333D01*
X82100000Y-65683333D01*
X82166667Y-65716667D01*
X82200000Y-65750000D01*
X82233333Y-65816667D01*
X82233333Y-65983333D01*
X82200000Y-66050000D01*
X82166667Y-66083333D01*
X82100000Y-66116667D01*
X81900000Y-66116667D01*
X81833333Y-66083333D01*
X81800000Y-66050000D01*
X82533334Y-66050000D02*
X82566667Y-66083333D01*
X82533334Y-66116667D01*
X82500000Y-66083333D01*
X82533334Y-66050000D01*
X82533334Y-66116667D01*
X82800000Y-65416667D02*
X83233333Y-65416667D01*
X83000000Y-65683333D01*
X83100000Y-65683333D01*
X83166667Y-65716667D01*
X83200000Y-65750000D01*
X83233333Y-65816667D01*
X83233333Y-65983333D01*
X83200000Y-66050000D01*
X83166667Y-66083333D01*
X83100000Y-66116667D01*
X82900000Y-66116667D01*
X82833333Y-66083333D01*
X82800000Y-66050000D01*
X83433334Y-65416667D02*
X83666667Y-66116667D01*
X83900000Y-65416667D01*
X90814286Y-50747619D02*
X90861905Y-50700000D01*
X90957143Y-50652381D01*
X91195239Y-50652381D01*
X91290477Y-50700000D01*
X91338096Y-50747619D01*
X91385715Y-50842857D01*
X91385715Y-50938095D01*
X91338096Y-51080952D01*
X90766667Y-51652381D01*
X91385715Y-51652381D01*
X88885715Y-51652381D02*
X88314286Y-51652381D01*
X88600000Y-51652381D02*
X88600000Y-50652381D01*
X88504762Y-50795238D01*
X88409524Y-50890476D01*
X88314286Y-50938095D01*
X61209524Y-64828571D02*
X60876190Y-64828571D01*
X60876190Y-65352381D02*
X60876190Y-64352381D01*
X61352381Y-64352381D01*
X62209524Y-65352381D02*
X61733333Y-65352381D01*
X61733333Y-64352381D01*
X62495238Y-65066667D02*
X62971429Y-65066667D01*
X62400000Y-65352381D02*
X62733333Y-64352381D01*
X63066667Y-65352381D01*
X63352381Y-65304762D02*
X63495238Y-65352381D01*
X63733334Y-65352381D01*
X63828572Y-65304762D01*
X63876191Y-65257143D01*
X63923810Y-65161905D01*
X63923810Y-65066667D01*
X63876191Y-64971429D01*
X63828572Y-64923810D01*
X63733334Y-64876190D01*
X63542857Y-64828571D01*
X63447619Y-64780952D01*
X63400000Y-64733333D01*
X63352381Y-64638095D01*
X63352381Y-64542857D01*
X63400000Y-64447619D01*
X63447619Y-64400000D01*
X63542857Y-64352381D01*
X63780953Y-64352381D01*
X63923810Y-64400000D01*
X64352381Y-65352381D02*
X64352381Y-64352381D01*
X64352381Y-64828571D02*
X64923810Y-64828571D01*
X64923810Y-65352381D02*
X64923810Y-64352381D01*
X74652381Y-54552381D02*
X74319047Y-54076190D01*
X74080952Y-54552381D02*
X74080952Y-53552381D01*
X74461905Y-53552381D01*
X74557143Y-53600000D01*
X74604762Y-53647619D01*
X74652381Y-53742857D01*
X74652381Y-53885714D01*
X74604762Y-53980952D01*
X74557143Y-54028571D01*
X74461905Y-54076190D01*
X74080952Y-54076190D01*
X75033333Y-54504762D02*
X75176190Y-54552381D01*
X75414286Y-54552381D01*
X75509524Y-54504762D01*
X75557143Y-54457143D01*
X75604762Y-54361905D01*
X75604762Y-54266667D01*
X75557143Y-54171429D01*
X75509524Y-54123810D01*
X75414286Y-54076190D01*
X75223809Y-54028571D01*
X75128571Y-53980952D01*
X75080952Y-53933333D01*
X75033333Y-53838095D01*
X75033333Y-53742857D01*
X75080952Y-53647619D01*
X75128571Y-53600000D01*
X75223809Y-53552381D01*
X75461905Y-53552381D01*
X75604762Y-53600000D01*
X75890476Y-53552381D02*
X76461905Y-53552381D01*
X76176190Y-54552381D02*
X76176190Y-53552381D01*
X81900000Y-52400000D02*
X81900000Y-51700000D01*
X83100000Y-51700000D02*
X83100000Y-52400000D01*
X69200000Y-62200000D02*
X69200000Y-61500000D01*
X70400000Y-61500000D02*
X70400000Y-62200000D01*
X71100000Y-52400000D02*
X71100000Y-51700000D01*
X72300000Y-51700000D02*
X72300000Y-52400000D01*
X83700000Y-52400000D02*
X83700000Y-51700000D01*
X84900000Y-51700000D02*
X84900000Y-52400000D01*
X57400000Y-57750000D02*
X59300000Y-57750000D01*
X57400000Y-56650000D02*
X59300000Y-56650000D01*
X58300000Y-57200000D02*
X58750000Y-57200000D01*
X58250000Y-56950000D02*
X58250000Y-57450000D01*
X58250000Y-57200000D02*
X58500000Y-56950000D01*
X58500000Y-56950000D02*
X58500000Y-57450000D01*
X58500000Y-57450000D02*
X58250000Y-57200000D01*
X90174000Y-66016000D02*
X89666000Y-66016000D01*
X90174000Y-66524000D02*
X89666000Y-66524000D01*
X90174000Y-63984000D02*
X89666000Y-63984000D01*
X90174000Y-63476000D02*
X89666000Y-63476000D01*
X90174000Y-61444000D02*
X89666000Y-61444000D01*
X90174000Y-60936000D02*
X89666000Y-60936000D01*
X90174000Y-53316000D02*
X89666000Y-53316000D01*
X90174000Y-53824000D02*
X89666000Y-53824000D01*
X90174000Y-58904000D02*
X89666000Y-58904000D01*
X90174000Y-58396000D02*
X89666000Y-58396000D01*
X90174000Y-56364000D02*
X89666000Y-56364000D01*
X90174000Y-55856000D02*
X89666000Y-55856000D01*
X92714000Y-66524000D02*
X92206000Y-66524000D01*
X92714000Y-66016000D02*
X92206000Y-66016000D01*
X92714000Y-63984000D02*
X92206000Y-63984000D01*
X92714000Y-63476000D02*
X92206000Y-63476000D01*
X92714000Y-53316000D02*
X92206000Y-53316000D01*
X92714000Y-53824000D02*
X92206000Y-53824000D01*
X92714000Y-55856000D02*
X92206000Y-55856000D01*
X92714000Y-56364000D02*
X92206000Y-56364000D01*
X92714000Y-61444000D02*
X92206000Y-61444000D01*
X92714000Y-60936000D02*
X92206000Y-60936000D01*
X92714000Y-58904000D02*
X92206000Y-58904000D01*
X92714000Y-58396000D02*
X92206000Y-58396000D01*
X88650000Y-52020000D02*
X87500000Y-52020000D01*
X87500000Y-52020000D02*
X87500000Y-53570000D01*
X95254000Y-53443000D02*
X101223000Y-53443000D01*
X101223000Y-53443000D02*
X101223000Y-53697000D01*
X101223000Y-53697000D02*
X95381000Y-53697000D01*
X95381000Y-53697000D02*
X95381000Y-53570000D01*
X95381000Y-53570000D02*
X101223000Y-53570000D01*
X92714000Y-62460000D02*
X95254000Y-62460000D01*
X92714000Y-62460000D02*
X92714000Y-65000000D01*
X92714000Y-65000000D02*
X95254000Y-65000000D01*
X95254000Y-63476000D02*
X101350000Y-63476000D01*
X101350000Y-63476000D02*
X101350000Y-63984000D01*
X101350000Y-63984000D02*
X95254000Y-63984000D01*
X95254000Y-65000000D02*
X95254000Y-62460000D01*
X95254000Y-67540000D02*
X95254000Y-65000000D01*
X101350000Y-66524000D02*
X95254000Y-66524000D01*
X101350000Y-66016000D02*
X101350000Y-66524000D01*
X95254000Y-66016000D02*
X101350000Y-66016000D01*
X92714000Y-65000000D02*
X92714000Y-67540000D01*
X92714000Y-65000000D02*
X95254000Y-65000000D01*
X92714000Y-67540000D02*
X95254000Y-67540000D01*
X92714000Y-57380000D02*
X95254000Y-57380000D01*
X92714000Y-57380000D02*
X92714000Y-59920000D01*
X92714000Y-59920000D02*
X95254000Y-59920000D01*
X95254000Y-58396000D02*
X101350000Y-58396000D01*
X101350000Y-58396000D02*
X101350000Y-58904000D01*
X101350000Y-58904000D02*
X95254000Y-58904000D01*
X95254000Y-59920000D02*
X95254000Y-57380000D01*
X95254000Y-62460000D02*
X95254000Y-59920000D01*
X101350000Y-61444000D02*
X95254000Y-61444000D01*
X101350000Y-60936000D02*
X101350000Y-61444000D01*
X95254000Y-60936000D02*
X101350000Y-60936000D01*
X92714000Y-62460000D02*
X95254000Y-62460000D01*
X92714000Y-59920000D02*
X92714000Y-62460000D01*
X92714000Y-59920000D02*
X95254000Y-59920000D01*
X92714000Y-54840000D02*
X95254000Y-54840000D01*
X92714000Y-54840000D02*
X92714000Y-57380000D01*
X92714000Y-57380000D02*
X95254000Y-57380000D01*
X95254000Y-55856000D02*
X101350000Y-55856000D01*
X101350000Y-55856000D02*
X101350000Y-56364000D01*
X101350000Y-56364000D02*
X95254000Y-56364000D01*
X95254000Y-57380000D02*
X95254000Y-54840000D01*
X95254000Y-54840000D02*
X95254000Y-52300000D01*
X101350000Y-53824000D02*
X95254000Y-53824000D01*
X101350000Y-53316000D02*
X101350000Y-53824000D01*
X95254000Y-53316000D02*
X101350000Y-53316000D01*
X92714000Y-54840000D02*
X95254000Y-54840000D01*
X92714000Y-52300000D02*
X92714000Y-54840000D01*
X92714000Y-52300000D02*
X95254000Y-52300000D01*
X59000000Y-63275000D02*
X58000000Y-63275000D01*
X58000000Y-61925000D02*
X59000000Y-61925000D01*
X64466000Y-52944000D02*
X61418000Y-52944000D01*
X61418000Y-52944000D02*
X61418000Y-60056000D01*
X61418000Y-60056000D02*
X64466000Y-60056000D01*
X67514000Y-52944000D02*
X68276000Y-52944000D01*
X68276000Y-52944000D02*
X70562000Y-54468000D01*
X70562000Y-54468000D02*
X70562000Y-58532000D01*
X70562000Y-58532000D02*
X68276000Y-60056000D01*
X68276000Y-60056000D02*
X67514000Y-60056000D01*
X80025000Y-56375000D02*
X79575000Y-56375000D01*
X80025000Y-63625000D02*
X79500000Y-63625000D01*
X72775000Y-63625000D02*
X73300000Y-63625000D01*
X72775000Y-56375000D02*
X73300000Y-56375000D01*
X80025000Y-56375000D02*
X80025000Y-56900000D01*
X72775000Y-56375000D02*
X72775000Y-56900000D01*
X72775000Y-63625000D02*
X72775000Y-63100000D01*
X80025000Y-63625000D02*
X80025000Y-63100000D01*
X79575000Y-56375000D02*
X79575000Y-55000000D01*
X59000000Y-56075000D02*
X58000000Y-56075000D01*
X58000000Y-54725000D02*
X59000000Y-54725000D01*
X80100000Y-52400000D02*
X80100000Y-51700000D01*
X81300000Y-51700000D02*
X81300000Y-52400000D01*
X78910000Y-66330000D02*
X71290000Y-66330000D01*
X78910000Y-68870000D02*
X71290000Y-68870000D01*
X81730000Y-69150000D02*
X80180000Y-69150000D01*
X71290000Y-66330000D02*
X71290000Y-68870000D01*
X78910000Y-68870000D02*
X78910000Y-66330000D01*
X80180000Y-66050000D02*
X81730000Y-66050000D01*
X81730000Y-66050000D02*
X81730000Y-69150000D01*
X78200000Y-52400000D02*
X78200000Y-51700000D01*
X79400000Y-51700000D02*
X79400000Y-52400000D01*
X58050000Y-68400000D02*
X58050000Y-66500000D01*
X56950000Y-68400000D02*
X56950000Y-66500000D01*
X57500000Y-67500000D02*
X57500000Y-67050000D01*
X57250000Y-67550000D02*
X57750000Y-67550000D01*
X57500000Y-67550000D02*
X57250000Y-67300000D01*
X57250000Y-67300000D02*
X57750000Y-67300000D01*
X57750000Y-67300000D02*
X57500000Y-67550000D01*
X61450000Y-68400000D02*
X61450000Y-66500000D01*
X60350000Y-68400000D02*
X60350000Y-66500000D01*
X60900000Y-67500000D02*
X60900000Y-67050000D01*
X60650000Y-67550000D02*
X61150000Y-67550000D01*
X60900000Y-67550000D02*
X60650000Y-67300000D01*
X60650000Y-67300000D02*
X61150000Y-67300000D01*
X61150000Y-67300000D02*
X60900000Y-67550000D01*
X64850000Y-68400000D02*
X64850000Y-66500000D01*
X63750000Y-68400000D02*
X63750000Y-66500000D01*
X64300000Y-67500000D02*
X64300000Y-67050000D01*
X64050000Y-67550000D02*
X64550000Y-67550000D01*
X64300000Y-67550000D02*
X64050000Y-67300000D01*
X64050000Y-67300000D02*
X64550000Y-67300000D01*
X64550000Y-67300000D02*
X64300000Y-67550000D01*
X68250000Y-68449300D02*
X68250000Y-66549300D01*
X67150000Y-68449300D02*
X67150000Y-66549300D01*
X67700000Y-67549300D02*
X67700000Y-67099300D01*
X67450000Y-67599300D02*
X67950000Y-67599300D01*
X67700000Y-67599300D02*
X67450000Y-67349300D01*
X67450000Y-67349300D02*
X67950000Y-67349300D01*
X67950000Y-67349300D02*
X67700000Y-67599300D01*
X58525000Y-67800000D02*
X58525000Y-66800000D01*
X59875000Y-66800000D02*
X59875000Y-67800000D01*
X61925000Y-67800000D02*
X61925000Y-66800000D01*
X63275000Y-66800000D02*
X63275000Y-67800000D01*
X65325000Y-67800000D02*
X65325000Y-66800000D01*
X66675000Y-66800000D02*
X66675000Y-67800000D01*
X68725000Y-67800000D02*
X68725000Y-66800000D01*
X70075000Y-66800000D02*
X70075000Y-67800000D01*
X63650000Y-62600000D02*
G75*
G03X63650000Y-62600000I-750000J0D01*
G01*
X64550000Y-61500000D02*
X64550000Y-61200000D01*
X64550000Y-61200000D02*
X61250000Y-61200000D01*
X61250000Y-61200000D02*
X61250000Y-61500000D01*
X64550000Y-63700000D02*
X64550000Y-64000000D01*
X64550000Y-64000000D02*
X61250000Y-64000000D01*
X61250000Y-64000000D02*
X61250000Y-63700000D01*
X75950000Y-52000000D02*
G75*
G03X75950000Y-52000000I-750000J0D01*
G01*
X73550000Y-53100000D02*
X73550000Y-53400000D01*
X73550000Y-53400000D02*
X76850000Y-53400000D01*
X76850000Y-53400000D02*
X76850000Y-53100000D01*
X73550000Y-50900000D02*
X73550000Y-50600000D01*
X73550000Y-50600000D02*
X76850000Y-50600000D01*
X76850000Y-50600000D02*
X76850000Y-50900000D01*
X85000000Y-67750000D02*
G75*
G03X85000000Y-67750000I-750000J0D01*
G01*
X85900000Y-66650000D02*
X85900000Y-66350000D01*
X85900000Y-66350000D02*
X82600000Y-66350000D01*
X82600000Y-66350000D02*
X82600000Y-66650000D01*
X85900000Y-68850000D02*
X85900000Y-69150000D01*
X85900000Y-69150000D02*
X82600000Y-69150000D01*
X82600000Y-69150000D02*
X82600000Y-68850000D01*
D10*
X82483334Y-54250000D02*
X82450000Y-54283333D01*
X82350000Y-54316667D01*
X82283334Y-54316667D01*
X82183334Y-54283333D01*
X82116667Y-54216667D01*
X82083334Y-54150000D01*
X82050000Y-54016667D01*
X82050000Y-53916667D01*
X82083334Y-53783333D01*
X82116667Y-53716667D01*
X82183334Y-53650000D01*
X82283334Y-53616667D01*
X82350000Y-53616667D01*
X82450000Y-53650000D01*
X82483334Y-53683333D01*
X83150000Y-54316667D02*
X82750000Y-54316667D01*
X82950000Y-54316667D02*
X82950000Y-53616667D01*
X82883334Y-53716667D01*
X82816667Y-53783333D01*
X82750000Y-53816667D01*
X68550000Y-62016666D02*
X68583333Y-62050000D01*
X68616667Y-62150000D01*
X68616667Y-62216666D01*
X68583333Y-62316666D01*
X68516667Y-62383333D01*
X68450000Y-62416666D01*
X68316667Y-62450000D01*
X68216667Y-62450000D01*
X68083333Y-62416666D01*
X68016667Y-62383333D01*
X67950000Y-62316666D01*
X67916667Y-62216666D01*
X67916667Y-62150000D01*
X67950000Y-62050000D01*
X67983333Y-62016666D01*
X67983333Y-61750000D02*
X67950000Y-61716666D01*
X67916667Y-61650000D01*
X67916667Y-61483333D01*
X67950000Y-61416666D01*
X67983333Y-61383333D01*
X68050000Y-61350000D01*
X68116667Y-61350000D01*
X68216667Y-61383333D01*
X68616667Y-61783333D01*
X68616667Y-61350000D01*
X71383334Y-54250000D02*
X71350000Y-54283333D01*
X71250000Y-54316667D01*
X71183334Y-54316667D01*
X71083334Y-54283333D01*
X71016667Y-54216667D01*
X70983334Y-54150000D01*
X70950000Y-54016667D01*
X70950000Y-53916667D01*
X70983334Y-53783333D01*
X71016667Y-53716667D01*
X71083334Y-53650000D01*
X71183334Y-53616667D01*
X71250000Y-53616667D01*
X71350000Y-53650000D01*
X71383334Y-53683333D01*
X71616667Y-53616667D02*
X72050000Y-53616667D01*
X71816667Y-53883333D01*
X71916667Y-53883333D01*
X71983334Y-53916667D01*
X72016667Y-53950000D01*
X72050000Y-54016667D01*
X72050000Y-54183333D01*
X72016667Y-54250000D01*
X71983334Y-54283333D01*
X71916667Y-54316667D01*
X71716667Y-54316667D01*
X71650000Y-54283333D01*
X71616667Y-54250000D01*
X84133334Y-54250000D02*
X84100000Y-54283333D01*
X84000000Y-54316667D01*
X83933334Y-54316667D01*
X83833334Y-54283333D01*
X83766667Y-54216667D01*
X83733334Y-54150000D01*
X83700000Y-54016667D01*
X83700000Y-53916667D01*
X83733334Y-53783333D01*
X83766667Y-53716667D01*
X83833334Y-53650000D01*
X83933334Y-53616667D01*
X84000000Y-53616667D01*
X84100000Y-53650000D01*
X84133334Y-53683333D01*
X84733334Y-53850000D02*
X84733334Y-54316667D01*
X84566667Y-53583333D02*
X84400000Y-54083333D01*
X84833334Y-54083333D01*
X57983334Y-59016667D02*
X57983334Y-58316667D01*
X58150000Y-58316667D01*
X58250000Y-58350000D01*
X58316667Y-58416667D01*
X58350000Y-58483333D01*
X58383334Y-58616667D01*
X58383334Y-58716667D01*
X58350000Y-58850000D01*
X58316667Y-58916667D01*
X58250000Y-58983333D01*
X58150000Y-59016667D01*
X57983334Y-59016667D01*
X59050000Y-59016667D02*
X58650000Y-59016667D01*
X58850000Y-59016667D02*
X58850000Y-58316667D01*
X58783334Y-58416667D01*
X58716667Y-58483333D01*
X58650000Y-58516667D01*
X58383334Y-61516667D02*
X58150000Y-61183333D01*
X57983334Y-61516667D02*
X57983334Y-60816667D01*
X58250000Y-60816667D01*
X58316667Y-60850000D01*
X58350000Y-60883333D01*
X58383334Y-60950000D01*
X58383334Y-61050000D01*
X58350000Y-61116667D01*
X58316667Y-61150000D01*
X58250000Y-61183333D01*
X57983334Y-61183333D01*
X58616667Y-60816667D02*
X59050000Y-60816667D01*
X58816667Y-61083333D01*
X58916667Y-61083333D01*
X58983334Y-61116667D01*
X59016667Y-61150000D01*
X59050000Y-61216667D01*
X59050000Y-61383333D01*
X59016667Y-61450000D01*
X58983334Y-61483333D01*
X58916667Y-61516667D01*
X58716667Y-61516667D01*
X58650000Y-61483333D01*
X58616667Y-61450000D01*
X68266667Y-53616667D02*
X68266667Y-54183333D01*
X68300000Y-54250000D01*
X68333333Y-54283333D01*
X68400000Y-54316667D01*
X68533333Y-54316667D01*
X68600000Y-54283333D01*
X68633333Y-54250000D01*
X68666667Y-54183333D01*
X68666667Y-53616667D01*
X69366666Y-54316667D02*
X68966666Y-54316667D01*
X69166666Y-54316667D02*
X69166666Y-53616667D01*
X69100000Y-53716667D01*
X69033333Y-53783333D01*
X68966666Y-53816667D01*
X80466667Y-63516667D02*
X80466667Y-64083333D01*
X80500000Y-64150000D01*
X80533333Y-64183333D01*
X80600000Y-64216667D01*
X80733333Y-64216667D01*
X80800000Y-64183333D01*
X80833333Y-64150000D01*
X80866667Y-64083333D01*
X80866667Y-63516667D01*
X81166666Y-63583333D02*
X81200000Y-63550000D01*
X81266666Y-63516667D01*
X81433333Y-63516667D01*
X81500000Y-63550000D01*
X81533333Y-63583333D01*
X81566666Y-63650000D01*
X81566666Y-63716667D01*
X81533333Y-63816667D01*
X81133333Y-64216667D01*
X81566666Y-64216667D01*
X58383334Y-54316667D02*
X58150000Y-53983333D01*
X57983334Y-54316667D02*
X57983334Y-53616667D01*
X58250000Y-53616667D01*
X58316667Y-53650000D01*
X58350000Y-53683333D01*
X58383334Y-53750000D01*
X58383334Y-53850000D01*
X58350000Y-53916667D01*
X58316667Y-53950000D01*
X58250000Y-53983333D01*
X57983334Y-53983333D01*
X58983334Y-53850000D02*
X58983334Y-54316667D01*
X58816667Y-53583333D02*
X58650000Y-54083333D01*
X59083334Y-54083333D01*
D11*
X51532381Y-60688095D02*
X50532381Y-60688095D01*
X50532381Y-60307142D01*
X50580000Y-60211904D01*
X50627619Y-60164285D01*
X50722857Y-60116666D01*
X50865714Y-60116666D01*
X50960952Y-60164285D01*
X51008571Y-60211904D01*
X51056190Y-60307142D01*
X51056190Y-60688095D01*
X50627619Y-59735714D02*
X50580000Y-59688095D01*
X50532381Y-59592857D01*
X50532381Y-59354761D01*
X50580000Y-59259523D01*
X50627619Y-59211904D01*
X50722857Y-59164285D01*
X50818095Y-59164285D01*
X50960952Y-59211904D01*
X51532381Y-59783333D01*
X51532381Y-59164285D01*
D10*
X80583334Y-54250000D02*
X80550000Y-54283333D01*
X80450000Y-54316667D01*
X80383334Y-54316667D01*
X80283334Y-54283333D01*
X80216667Y-54216667D01*
X80183334Y-54150000D01*
X80150000Y-54016667D01*
X80150000Y-53916667D01*
X80183334Y-53783333D01*
X80216667Y-53716667D01*
X80283334Y-53650000D01*
X80383334Y-53616667D01*
X80450000Y-53616667D01*
X80550000Y-53650000D01*
X80583334Y-53683333D01*
X81216667Y-53616667D02*
X80883334Y-53616667D01*
X80850000Y-53950000D01*
X80883334Y-53916667D01*
X80950000Y-53883333D01*
X81116667Y-53883333D01*
X81183334Y-53916667D01*
X81216667Y-53950000D01*
X81250000Y-54016667D01*
X81250000Y-54183333D01*
X81216667Y-54250000D01*
X81183334Y-54283333D01*
X81116667Y-54316667D01*
X80950000Y-54316667D01*
X80883334Y-54283333D01*
X80850000Y-54250000D01*
X78633334Y-54250000D02*
X78600000Y-54283333D01*
X78500000Y-54316667D01*
X78433334Y-54316667D01*
X78333334Y-54283333D01*
X78266667Y-54216667D01*
X78233334Y-54150000D01*
X78200000Y-54016667D01*
X78200000Y-53916667D01*
X78233334Y-53783333D01*
X78266667Y-53716667D01*
X78333334Y-53650000D01*
X78433334Y-53616667D01*
X78500000Y-53616667D01*
X78600000Y-53650000D01*
X78633334Y-53683333D01*
X79233334Y-53616667D02*
X79100000Y-53616667D01*
X79033334Y-53650000D01*
X79000000Y-53683333D01*
X78933334Y-53783333D01*
X78900000Y-53916667D01*
X78900000Y-54183333D01*
X78933334Y-54250000D01*
X78966667Y-54283333D01*
X79033334Y-54316667D01*
X79166667Y-54316667D01*
X79233334Y-54283333D01*
X79266667Y-54250000D01*
X79300000Y-54183333D01*
X79300000Y-54016667D01*
X79266667Y-53950000D01*
X79233334Y-53916667D01*
X79166667Y-53883333D01*
X79033334Y-53883333D01*
X78966667Y-53916667D01*
X78933334Y-53950000D01*
X78900000Y-54016667D01*
M02*
